<?xml version="1.0" encoding="UTF-8" standalone="no"?><svg xmlns="http://www.w3.org/2000/svg" xmlns:xlink="http://www.w3.org/1999/xlink" contentScriptType="application/ecmascript" contentStyleType="text/css" height="143px" preserveAspectRatio="none" style="width:139px;height:143px;" version="1.1" viewBox="0 0 139 143" width="139px" zoomAndPan="magnify"><defs/><g><!--class A--><rect fill="#FFFFFF" height="32" id="A" style="stroke: #383838; stroke-width: 1.5;" width="40" x="6" y="8"/><ellipse cx="21" cy="24" fill="#C2C2C2" rx="11" ry="11" style="stroke: #383838; stroke-width: 1.0;"/><path d="M23.9688,29.6406 Q23.3906,29.9375 22.75,30.0859 Q22.1094,30.2344 21.4063,30.2344 Q18.9063,30.2344 17.5859,28.5859 Q16.2656,26.9375 16.2656,23.8125 Q16.2656,20.6875 17.5859,19.0313 Q18.9063,17.375 21.4063,17.375 Q22.1094,17.375 22.7578,17.5313 Q23.4063,17.6875 23.9688,17.9844 L23.9688,20.7031 Q23.3438,20.125 22.75,19.8516 Q22.1563,19.5781 21.5313,19.5781 Q20.1875,19.5781 19.5,20.6484 Q18.8125,21.7188 18.8125,23.8125 Q18.8125,25.9063 19.5,26.9766 Q20.1875,28.0469 21.5313,28.0469 Q22.1563,28.0469 22.75,27.7734 Q23.3438,27.5 23.9688,26.9219 L23.9688,29.6406 Z "/><text fill="#000000" font-family="sans-serif" font-size="12" lengthAdjust="spacingAndGlyphs" textLength="8" x="35" y="28.1543">A</text><!--class B--><rect fill="#FFFFFF" height="32" id="B" style="stroke: #383838; stroke-width: 1.5;" width="40" x="8" y="100"/><ellipse cx="23" cy="116" fill="#C2C2C2" rx="11" ry="11" style="stroke: #383838; stroke-width: 1.0;"/><path d="M25.9688,121.6406 Q25.3906,121.9375 24.75,122.0859 Q24.1094,122.2344 23.4063,122.2344 Q20.9063,122.2344 19.5859,120.5859 Q18.2656,118.9375 18.2656,115.8125 Q18.2656,112.6875 19.5859,111.0313 Q20.9063,109.375 23.4063,109.375 Q24.1094,109.375 24.7578,109.5313 Q25.4063,109.6875 25.9688,109.9844 L25.9688,112.7031 Q25.3438,112.125 24.75,111.8516 Q24.1563,111.5781 23.5313,111.5781 Q22.1875,111.5781 21.5,112.6484 Q20.8125,113.7188 20.8125,115.8125 Q20.8125,117.9063 21.5,118.9766 Q22.1875,120.0469 23.5313,120.0469 Q24.1563,120.0469 24.75,119.7734 Q25.3438,119.5 25.9688,118.9219 L25.9688,121.6406 Z "/><text fill="#000000" font-family="sans-serif" font-size="12" lengthAdjust="spacingAndGlyphs" textLength="8" x="37" y="120.1543">B</text><!--class TC--><rect fill="#FFFFFF" height="32" id="TC" style="stroke: #383838; stroke-width: 1.5;" width="47" x="81.5" y="8"/><ellipse cx="96.5" cy="24" fill="#9B9B9B" rx="11" ry="11" style="stroke: #383838; stroke-width: 1.0;"/><path d="M97.3438,30.75 L94.8906,30.75 L94.8906,20.5 L91.75,20.5 L91.75,18.3594 L100.4844,18.3594 L100.4844,20.5 L97.3438,20.5 L97.3438,30.75 Z "/><text fill="#000000" font-family="sans-serif" font-size="12" lengthAdjust="spacingAndGlyphs" textLength="15" x="110.5" y="28.1543">TC</text><!--class C--><rect fill="#FFFFFF" height="32" id="C" style="stroke: #383838; stroke-width: 1.5;" width="40" x="85" y="100"/><ellipse cx="100" cy="116" fill="#C2C2C2" rx="11" ry="11" style="stroke: #383838; stroke-width: 1.0;"/><path d="M102.9688,121.6406 Q102.3906,121.9375 101.75,122.0859 Q101.1094,122.2344 100.4063,122.2344 Q97.9063,122.2344 96.5859,120.5859 Q95.2656,118.9375 95.2656,115.8125 Q95.2656,112.6875 96.5859,111.0313 Q97.9063,109.375 100.4063,109.375 Q101.1094,109.375 101.7578,109.5313 Q102.4063,109.6875 102.9688,109.9844 L102.9688,112.7031 Q102.3438,112.125 101.75,111.8516 Q101.1563,111.5781 100.5313,111.5781 Q99.1875,111.5781 98.5,112.6484 Q97.8125,113.7188 97.8125,115.8125 Q97.8125,117.9063 98.5,118.9766 Q99.1875,120.0469 100.5313,120.0469 Q101.1563,120.0469 101.75,119.7734 Q102.3438,119.5 102.9688,118.9219 L102.9688,121.6406 Z "/><text fill="#000000" font-family="sans-serif" font-size="12" lengthAdjust="spacingAndGlyphs" textLength="8" x="114" y="120.1543">C</text><!--link A to B--><path d="M26.7914,60.6147 C27.0958,74.3102 27.4271,89.2196 27.6657,99.9582 " fill="none" id="A-B" style="stroke: #383838; stroke-width: 1.0;"/><polygon fill="none" points="19.7854,60.4179,26.3393,40.2673,33.782,60.1068,19.7854,60.4179" style="stroke: #383838; stroke-width: 1.0;"/><!--link TC to B--><path d="M78.7116,55.7267 C65.9379,70.657 51.1635,87.9257 40.8691,99.9582 " fill="none" id="TC-B" style="stroke: #383838; stroke-width: 1.0;"/><polygon fill="none" points="73.6171,50.9137,91.938,40.2673,84.255,60.015,73.6171,50.9137" style="stroke: #383838; stroke-width: 1.0;"/><!--link TC to C--><path d="M105,60.6147 C105,74.3102 105,89.2196 105,99.9582 " fill="none" id="TC-C" style="stroke: #383838; stroke-width: 1.0;"/><polygon fill="none" points="98.0001,60.2673,105,40.2673,112,60.2672,98.0001,60.2673" style="stroke: #383838; stroke-width: 1.0;"/><!--
@startuml
skinparam shadowing false
skinparam monochrome true
skinparam class {
	BackgroundColor White
}

hide empty members

class A
class B
class TC << (T,orchid) >>
class C

A <|-down- B
TC <|-down- B
TC <|-down- C


@enduml

PlantUML version 1.2018.08(Sun Jun 24 14:31:00 CEST 2018)
(GPL source distribution)
Java Runtime: OpenJDK Runtime Environment
JVM: OpenJDK Server VM
Java Version: 1.8.0_171-8u171-b11-0ubuntu0.16.04.1-b11
Operating System: Linux
OS Version: 4.4.0-121-generic
Default Encoding: UTF-8
Language: en
Country: US
--></g></svg>