<?xml version="1.0" encoding="UTF-8" standalone="no"?><svg xmlns="http://www.w3.org/2000/svg" xmlns:xlink="http://www.w3.org/1999/xlink" contentScriptType="application/ecmascript" contentStyleType="text/css" height="143px" preserveAspectRatio="none" style="width:132px;height:143px;" version="1.1" viewBox="0 0 132 143" width="132px" zoomAndPan="magnify"><defs/><g><!--class A--><rect fill="#FFFFFF" height="32" id="A" style="stroke: #383838; stroke-width: 1.5;" width="40" x="6" y="8"/><ellipse cx="21" cy="24" fill="#C2C2C2" rx="11" ry="11" style="stroke: #383838; stroke-width: 1.0;"/><path d="M23.9688,29.6406 Q23.3906,29.9375 22.75,30.0859 Q22.1094,30.2344 21.4063,30.2344 Q18.9063,30.2344 17.5859,28.5859 Q16.2656,26.9375 16.2656,23.8125 Q16.2656,20.6875 17.5859,19.0313 Q18.9063,17.375 21.4063,17.375 Q22.1094,17.375 22.7578,17.5313 Q23.4063,17.6875 23.9688,17.9844 L23.9688,20.7031 Q23.3438,20.125 22.75,19.8516 Q22.1563,19.5781 21.5313,19.5781 Q20.1875,19.5781 19.5,20.6484 Q18.8125,21.7188 18.8125,23.8125 Q18.8125,25.9063 19.5,26.9766 Q20.1875,28.0469 21.5313,28.0469 Q22.1563,28.0469 22.75,27.7734 Q23.3438,27.5 23.9688,26.9219 L23.9688,29.6406 Z "/><text fill="#000000" font-family="sans-serif" font-size="12" lengthAdjust="spacingAndGlyphs" textLength="8" x="35" y="28.1543">A</text><!--class B--><rect fill="#FFFFFF" height="32" id="B" style="stroke: #383838; stroke-width: 1.5;" width="40" x="43" y="100"/><ellipse cx="58" cy="116" fill="#C2C2C2" rx="11" ry="11" style="stroke: #383838; stroke-width: 1.0;"/><path d="M60.9688,121.6406 Q60.3906,121.9375 59.75,122.0859 Q59.1094,122.2344 58.4063,122.2344 Q55.9063,122.2344 54.5859,120.5859 Q53.2656,118.9375 53.2656,115.8125 Q53.2656,112.6875 54.5859,111.0313 Q55.9063,109.375 58.4063,109.375 Q59.1094,109.375 59.7578,109.5313 Q60.4063,109.6875 60.9688,109.9844 L60.9688,112.7031 Q60.3438,112.125 59.75,111.8516 Q59.1563,111.5781 58.5313,111.5781 Q57.1875,111.5781 56.5,112.6484 Q55.8125,113.7188 55.8125,115.8125 Q55.8125,117.9063 56.5,118.9766 Q57.1875,120.0469 58.5313,120.0469 Q59.1563,120.0469 59.75,119.7734 Q60.3438,119.5 60.9688,118.9219 L60.9688,121.6406 Z "/><text fill="#000000" font-family="sans-serif" font-size="12" lengthAdjust="spacingAndGlyphs" textLength="8" x="72" y="120.1543">B</text><!--class C--><rect fill="#FFFFFF" height="32" id="C" style="stroke: #383838; stroke-width: 1.5;" width="40" x="81" y="8"/><ellipse cx="96" cy="24" fill="#C2C2C2" rx="11" ry="11" style="stroke: #383838; stroke-width: 1.0;"/><path d="M98.9688,29.6406 Q98.3906,29.9375 97.75,30.0859 Q97.1094,30.2344 96.4063,30.2344 Q93.9063,30.2344 92.5859,28.5859 Q91.2656,26.9375 91.2656,23.8125 Q91.2656,20.6875 92.5859,19.0313 Q93.9063,17.375 96.4063,17.375 Q97.1094,17.375 97.7578,17.5313 Q98.4063,17.6875 98.9688,17.9844 L98.9688,20.7031 Q98.3438,20.125 97.75,19.8516 Q97.1563,19.5781 96.5313,19.5781 Q95.1875,19.5781 94.5,20.6484 Q93.8125,21.7188 93.8125,23.8125 Q93.8125,25.9063 94.5,26.9766 Q95.1875,28.0469 96.5313,28.0469 Q97.1563,28.0469 97.75,27.7734 Q98.3438,27.5 98.9688,26.9219 L98.9688,29.6406 Z "/><text fill="#000000" font-family="sans-serif" font-size="12" lengthAdjust="spacingAndGlyphs" textLength="8" x="110" y="28.1543">C</text><!--link A to B--><path d="M40.0331,59.1346 C45.8266,73.227 52.2418,88.8314 56.8161,99.9582 " fill="none" id="A-B" style="stroke: #383838; stroke-width: 1.0;"/><polygon fill="none" points="33.407,61.4267,32.2765,40.2673,46.3555,56.1034,33.407,61.4267" style="stroke: #383838; stroke-width: 1.0;"/><!--link C to B--><path d="M86.5876,59.1346 C80.6375,73.227 74.049,88.8314 69.351,99.9582 " fill="none" id="C-B" style="stroke: #383838; stroke-width: 1.0;"/><polygon fill="none" points="80.3256,55.9694,94.5538,40.2673,93.2231,61.4151,80.3256,55.9694" style="stroke: #383838; stroke-width: 1.0;"/><!--
@startuml
skinparam shadowing false
skinparam monochrome true
skinparam class {
	BackgroundColor White
}

hide empty members

class A
class B
class C

A <|-down- B
C <|-down- B


@enduml

PlantUML version 1.2018.08(Sun Jun 24 14:31:00 CEST 2018)
(GPL source distribution)
Java Runtime: OpenJDK Runtime Environment
JVM: OpenJDK Server VM
Java Version: 1.8.0_171-8u171-b11-0ubuntu0.16.04.1-b11
Operating System: Linux
OS Version: 4.4.0-121-generic
Default Encoding: UTF-8
Language: en
Country: US
--></g></svg>