<?xml version="1.0" encoding="UTF-8" standalone="no"?><svg xmlns="http://www.w3.org/2000/svg" xmlns:xlink="http://www.w3.org/1999/xlink" contentScriptType="application/ecmascript" contentStyleType="text/css" height="261px" preserveAspectRatio="none" style="width:366px;height:261px;" version="1.1" viewBox="0 0 366 261" width="366px" zoomAndPan="magnify"><defs/><g><!--class Access--><rect fill="#FFFFFF" height="78.4141" id="Access" style="stroke: #383838; stroke-width: 1.5;" width="151" x="124.5" y="8"/><ellipse cx="173.75" cy="24" fill="#9B9B9B" rx="11" ry="11" style="stroke: #383838; stroke-width: 1.0;"/><path d="M174.5938,30.75 L172.1406,30.75 L172.1406,20.5 L169,20.5 L169,18.3594 L177.7344,18.3594 L177.7344,20.5 L174.5938,20.5 L174.5938,30.75 Z "/><text fill="#000000" font-family="sans-serif" font-size="12" lengthAdjust="spacingAndGlyphs" textLength="44" x="194.25" y="28.1543">Access</text><line style="stroke: #383838; stroke-width: 1.5;" x1="125.5" x2="274.5" y1="40" y2="40"/><ellipse cx="135.5" cy="51.9023" fill="#A6A6A6" rx="3" ry="3" style="stroke: #545454; stroke-width: 1.0;"/><text fill="#000000" font-family="sans-serif" font-size="11" lengthAdjust="spacingAndGlyphs" textLength="125" x="144.5" y="54.2104">isReadWriteUnknown()</text><ellipse cx="135.5" cy="64.707" fill="#A6A6A6" rx="3" ry="3" style="stroke: #545454; stroke-width: 1.0;"/><text fill="#000000" font-family="sans-serif" font-size="11" lengthAdjust="spacingAndGlyphs" textLength="46" x="144.5" y="67.0151">isWrite()</text><ellipse cx="135.5" cy="77.5117" fill="#A6A6A6" rx="3" ry="3" style="stroke: #545454; stroke-width: 1.0;"/><text fill="#000000" font-family="sans-serif" font-size="11" lengthAdjust="spacingAndGlyphs" textLength="46" x="144.5" y="79.8198">isRead()</text><!--class Accessible--><rect fill="#FFFFFF" height="104.0234" id="Accessible" style="stroke: #383838; stroke-width: 1.5;" width="196" x="6" y="146"/><ellipse cx="66.75" cy="162" fill="#9B9B9B" rx="11" ry="11" style="stroke: #383838; stroke-width: 1.0;"/><path d="M67.5938,168.75 L65.1406,168.75 L65.1406,158.5 L62,158.5 L62,156.3594 L70.7344,156.3594 L70.7344,158.5 L67.5938,158.5 L67.5938,168.75 Z "/><text fill="#000000" font-family="sans-serif" font-size="12" lengthAdjust="spacingAndGlyphs" textLength="66" x="87.25" y="166.1543">Accessible</text><line style="stroke: #383838; stroke-width: 1.5;" x1="7" x2="201" y1="178" y2="178"/><ellipse cx="17" cy="189.9023" fill="#A6A6A6" rx="3" ry="3" style="stroke: #545454; stroke-width: 1.0;"/><text fill="#000000" font-family="sans-serif" font-size="11" lengthAdjust="spacingAndGlyphs" textLength="170" x="26" y="192.2104">numberOfAccessingMethods()</text><ellipse cx="17" cy="202.707" fill="#A6A6A6" rx="3" ry="3" style="stroke: #545454; stroke-width: 1.0;"/><text fill="#000000" font-family="sans-serif" font-size="11" lengthAdjust="spacingAndGlyphs" textLength="155" x="26" y="205.0151">numberOfGlobalAccesses()</text><ellipse cx="17" cy="215.5117" fill="#A6A6A6" rx="3" ry="3" style="stroke: #545454; stroke-width: 1.0;"/><text fill="#000000" font-family="sans-serif" font-size="11" lengthAdjust="spacingAndGlyphs" textLength="148" x="26" y="217.8198">numberOfLocalAccesses()</text><ellipse cx="17" cy="228.3164" fill="#A6A6A6" rx="3" ry="3" style="stroke: #545454; stroke-width: 1.0;"/><text fill="#000000" font-family="sans-serif" font-size="11" lengthAdjust="spacingAndGlyphs" textLength="168" x="26" y="230.6245">numberOfAccessingClasses()</text><ellipse cx="17" cy="241.1211" fill="#A6A6A6" rx="3" ry="3" style="stroke: #545454; stroke-width: 1.0;"/><text fill="#000000" font-family="sans-serif" font-size="11" lengthAdjust="spacingAndGlyphs" textLength="119" x="26" y="243.4292">numberOfAccesses()</text><!--class WithAccesses--><rect fill="#FFFFFF" height="32" id="WithAccesses" style="stroke: #383838; stroke-width: 1.5;" width="118" x="237" y="182"/><ellipse cx="252" cy="198" fill="#9B9B9B" rx="11" ry="11" style="stroke: #383838; stroke-width: 1.0;"/><path d="M252.8438,204.75 L250.3906,204.75 L250.3906,194.5 L247.25,194.5 L247.25,192.3594 L255.9844,192.3594 L255.9844,194.5 L252.8438,194.5 L252.8438,204.75 Z "/><text fill="#000000" font-family="sans-serif" font-size="12" lengthAdjust="spacingAndGlyphs" textLength="86" x="266" y="202.1543">WithAccesses</text><!--link Access to WithAccesses--><path d="M224.722,86.371 C244.722,117.413 271.836,159.4952 286.172,181.7459 " fill="none" id="Access-WithAccesses" style="stroke: #383838; stroke-width: 1.0;"/><ellipse cx="240.4867" cy="102.0356" fill="#000000" rx="2.5" ry="2.5" style="stroke: #000000; stroke-width: 0.0;"/><text fill="#000000" font-family="sans-serif" font-size="13" lengthAdjust="spacingAndGlyphs" textLength="59" x="245.9867" y="106.4697">accesses</text><text fill="#000000" font-family="sans-serif" font-size="13" lengthAdjust="spacingAndGlyphs" textLength="57" x="216.4758" y="170.9662">accessor</text><!--link Access to Accessible--><path d="M175.278,86.371 C163.611,104.479 149.524,126.343 136.964,145.837 " fill="none" id="Access-Accessible" style="stroke: #383838; stroke-width: 1.0;"/><ellipse cx="36.4425" cy="102.0356" fill="#000000" rx="2.5" ry="2.5" style="stroke: #000000; stroke-width: 0.0;"/><text fill="#000000" font-family="sans-serif" font-size="13" lengthAdjust="spacingAndGlyphs" textLength="118" x="41.9425" y="106.4697">incomingAccesses</text><text fill="#000000" font-family="sans-serif" font-size="13" lengthAdjust="spacingAndGlyphs" textLength="50" x="88.0345" y="134.894">variable</text><!--
@startuml
skinparam shadowing false
skinparam monochrome true
skinparam class {
	BackgroundColor White
}
hide empty members
class Access << (T,orchid) >> {
	+isReadWriteUnknown()
	+isWrite()
	+isRead()
 }
class Accessible << (T,orchid) >> {
	+numberOfAccessingMethods()
	+numberOfGlobalAccesses()
	+numberOfLocalAccesses()
	+numberOfAccessingClasses()
	+numberOfAccesses()
 }
class WithAccesses << (T,orchid) >> {
 }
Access "* accesses" - - "accessor" WithAccesses
Access "* incomingAccesses" - - "variable" Accessible
@enduml

PlantUML version 1.2018.08(Sun Jun 24 14:31:00 CEST 2018)
(GPL source distribution)
Java Runtime: OpenJDK Runtime Environment
JVM: OpenJDK Server VM
Java Version: 1.8.0_171-8u171-b11-0ubuntu0.16.04.1-b11
Operating System: Linux
OS Version: 4.4.0-121-generic
Default Encoding: UTF-8
Language: en
Country: US
--></g></svg>