<?xml version="1.0" encoding="UTF-8" standalone="no"?><svg xmlns="http://www.w3.org/2000/svg" xmlns:xlink="http://www.w3.org/1999/xlink" contentScriptType="application/ecmascript" contentStyleType="text/css" height="164px" preserveAspectRatio="none" style="width:320px;height:164px;" version="1.1" viewBox="0 0 320 164" width="320px" zoomAndPan="magnify"><defs/><g><!--class AnnotationInstanceAttribute--><rect fill="#FFFFFF" height="52.8047" id="AnnotationInstanceAttribute" style="stroke: #383838; stroke-width: 1.5;" width="210" x="82" y="8"/><ellipse cx="97" cy="24" fill="#9B9B9B" rx="11" ry="11" style="stroke: #383838; stroke-width: 1.0;"/><path d="M97.8438,30.75 L95.3906,30.75 L95.3906,20.5 L92.25,20.5 L92.25,18.3594 L100.9844,18.3594 L100.9844,20.5 L97.8438,20.5 L97.8438,30.75 Z "/><text fill="#000000" font-family="sans-serif" font-size="12" lengthAdjust="spacingAndGlyphs" textLength="178" x="111" y="28.1543">AnnotationInstanceAttribute</text><line style="stroke: #383838; stroke-width: 1.5;" x1="83" x2="291" y1="40" y2="40"/><ellipse cx="93" cy="51.9023" fill="none" rx="3" ry="3" style="stroke: #545454; stroke-width: 1.0;"/><text fill="#000000" font-family="sans-serif" font-size="11" lengthAdjust="spacingAndGlyphs" textLength="30" x="102" y="54.2104">value</text><!--class WithAnnotationInstanceAttributes--><rect fill="#FFFFFF" height="32" id="WithAnnotationInstanceAttributes" style="stroke: #383838; stroke-width: 1.5;" width="244" x="65" y="121"/><ellipse cx="80" cy="137" fill="#9B9B9B" rx="11" ry="11" style="stroke: #383838; stroke-width: 1.0;"/><path d="M80.8438,143.75 L78.3906,143.75 L78.3906,133.5 L75.25,133.5 L75.25,131.3594 L83.9844,131.3594 L83.9844,133.5 L80.8438,133.5 L80.8438,143.75 Z "/><text fill="#000000" font-family="sans-serif" font-size="12" lengthAdjust="spacingAndGlyphs" textLength="212" x="94" y="141.1543">WithAnnotationInstanceAttributes</text><!--link AnnotationInstanceAttribute to WithAnnotationInstanceAttributes--><path d="M187,61.1204 C187,75.2522 187,92.8368 187,107.4134 " fill="none" id="AnnotationInstanceAttribute-WithAnnotationInstanceAttributes" style="stroke: #383838; stroke-width: 1.0;"/><polygon fill="#FFFFFF" points="187,120.7482,191,114.7482,187,108.7482,183,114.7482,187,120.7482" style="stroke: #383838; stroke-width: 1.0;"/><ellipse cx="111.5156" cy="76.2529" fill="#000000" rx="2.5" ry="2.5" style="stroke: #000000; stroke-width: 0.0;"/><text fill="#000000" font-family="sans-serif" font-size="13" lengthAdjust="spacingAndGlyphs" textLength="62" x="117.0156" y="80.687">attributes</text><text fill="#000000" font-family="sans-serif" font-size="13" lengthAdjust="spacingAndGlyphs" textLength="166" x="-6.4938" y="109.9693">parentAnnotationInstance</text><!--
@startuml
skinparam shadowing false
skinparam monochrome true
skinparam class {
	BackgroundColor White
}
hide empty members
class AnnotationInstanceAttribute << (T,orchid) >> {
	+value
 }
class WithAnnotationInstanceAttributes << (T,orchid) >> {
 }
AnnotationInstanceAttribute "* attributes" - -o "parentAnnotationInstance" WithAnnotationInstanceAttributes
@enduml

PlantUML version 1.2018.08(Sun Jun 24 14:31:00 CEST 2018)
(GPL source distribution)
Java Runtime: OpenJDK Runtime Environment
JVM: OpenJDK Server VM
Java Version: 1.8.0_171-8u171-b11-0ubuntu0.16.04.1-b11
Operating System: Linux
OS Version: 4.4.0-121-generic
Default Encoding: UTF-8
Language: en
Country: US
--></g></svg>