<?xml version="1.0" encoding="UTF-8" standalone="no"?><svg xmlns="http://www.w3.org/2000/svg" xmlns:xlink="http://www.w3.org/1999/xlink" contentScriptType="application/ecmascript" contentStyleType="text/css" height="143px" preserveAspectRatio="none" style="width:437px;height:143px;" version="1.1" viewBox="0 0 437 143" width="437px" zoomAndPan="magnify"><defs/><g><!--class TypedAnnotationInstance--><rect fill="#FFFFFF" height="32" id="TypedAnnotationInstance" style="stroke: #383838; stroke-width: 1.5;" width="192" x="6" y="8"/><ellipse cx="21" cy="24" fill="#9B9B9B" rx="11" ry="11" style="stroke: #383838; stroke-width: 1.0;"/><path d="M21.8438,30.75 L19.3906,30.75 L19.3906,20.5 L16.25,20.5 L16.25,18.3594 L24.9844,18.3594 L24.9844,20.5 L21.8438,20.5 L21.8438,30.75 Z "/><text fill="#000000" font-family="sans-serif" font-size="12" lengthAdjust="spacingAndGlyphs" textLength="160" x="35" y="28.1543">TypedAnnotationInstance</text><!--class WithAnnotationTypes--><rect fill="#FFFFFF" height="32" id="WithAnnotationTypes" style="stroke: #383838; stroke-width: 1.5;" width="164" x="233" y="8"/><ellipse cx="248" cy="24" fill="#9B9B9B" rx="11" ry="11" style="stroke: #383838; stroke-width: 1.0;"/><path d="M248.8438,30.75 L246.3906,30.75 L246.3906,20.5 L243.25,20.5 L243.25,18.3594 L251.9844,18.3594 L251.9844,20.5 L248.8438,20.5 L248.8438,30.75 Z "/><text fill="#000000" font-family="sans-serif" font-size="12" lengthAdjust="spacingAndGlyphs" textLength="132" x="262" y="28.1543">WithAnnotationTypes</text><!--class AnnotationType--><rect fill="#FFFFFF" height="32" id="AnnotationType" style="stroke: #383838; stroke-width: 1.5;" width="130" x="143" y="100"/><ellipse cx="158" cy="116" fill="#9B9B9B" rx="11" ry="11" style="stroke: #383838; stroke-width: 1.0;"/><path d="M158.8438,122.75 L156.3906,122.75 L156.3906,112.5 L153.25,112.5 L153.25,110.3594 L161.9844,110.3594 L161.9844,112.5 L158.8438,112.5 L158.8438,122.75 Z "/><text fill="#000000" font-family="sans-serif" font-size="12" lengthAdjust="spacingAndGlyphs" textLength="98" x="172" y="120.1543">AnnotationType</text><!--link TypedAnnotationInstance to AnnotationType--><path d="M119.981,40.2673 C136.528,54.3159 161.316,75.3624 180.374,91.5442 " fill="none" id="TypedAnnotationInstance-AnnotationType" style="stroke: #383838; stroke-width: 1.0;"/><polygon fill="#FFFFFF" points="190.284,99.9582,188.2993,93.0256,181.1366,92.1913,183.1213,99.1239,190.284,99.9582" style="stroke: #383838; stroke-width: 1.0;"/><ellipse cx="47.7381" cy="55.4971" fill="#000000" rx="2.5" ry="2.5" style="stroke: #000000; stroke-width: 0.0;"/><text fill="#000000" font-family="sans-serif" font-size="13" lengthAdjust="spacingAndGlyphs" textLength="61" x="53.2381" y="59.9312">instances</text><text fill="#000000" font-family="sans-serif" font-size="13" lengthAdjust="spacingAndGlyphs" textLength="99" x="68.1786" y="88.9554">annotationType</text><!--link WithAnnotationTypes to AnnotationType--><path d="M286.804,48.7167 C267.504,64.9503 242.496,85.985 225.883,99.9582 " fill="none" id="WithAnnotationTypes-AnnotationType" style="stroke: #383838; stroke-width: 1.0;"/><polygon fill="#FFFFFF" points="296.849,40.2673,289.6826,41.0686,287.6658,47.9919,294.8323,47.1907,296.849,40.2673" style="stroke: #383838; stroke-width: 1.0;"/><text fill="#000000" font-family="sans-serif" font-size="13" lengthAdjust="spacingAndGlyphs" textLength="168" x="163.8689" y="60.0785">annotationTypesContainer</text><ellipse cx="265.8897" cy="84.5213" fill="#000000" rx="2.5" ry="2.5" style="stroke: #000000; stroke-width: 0.0;"/><text fill="#000000" font-family="sans-serif" font-size="13" lengthAdjust="spacingAndGlyphs" textLength="154" x="271.3897" y="88.9554">definedAnnotationTypes</text><!--
@startuml
skinparam shadowing false
skinparam monochrome true
skinparam class {
	BackgroundColor White
}
hide empty members
class TypedAnnotationInstance << (T,orchid) >> {
 }
class WithAnnotationTypes << (T,orchid) >> {
 }
class AnnotationType << (T,orchid) >> {
 }
TypedAnnotationInstance "* instances" - -o "annotationType" AnnotationType
WithAnnotationTypes "annotationTypesContainer" o- - "* definedAnnotationTypes" AnnotationType
@enduml

PlantUML version 1.2018.08(Sun Jun 24 14:31:00 CEST 2018)
(GPL source distribution)
Java Runtime: OpenJDK Runtime Environment
JVM: OpenJDK Server VM
Java Version: 1.8.0_171-8u171-b11-0ubuntu0.16.04.1-b11
Operating System: Linux
OS Version: 4.4.0-121-generic
Default Encoding: UTF-8
Language: en
Country: US
--></g></svg>