<?xml version="1.0" encoding="UTF-8" standalone="no"?><svg xmlns="http://www.w3.org/2000/svg" xmlns:xlink="http://www.w3.org/1999/xlink" contentScriptType="application/ecmascript" contentStyleType="text/css" height="143px" preserveAspectRatio="none" style="width:267px;height:143px;" version="1.1" viewBox="0 0 267 143" width="267px" zoomAndPan="magnify"><defs/><g><!--class WithAnnotationInstances--><rect fill="#FFFFFF" height="32" id="WithAnnotationInstances" style="stroke: #383838; stroke-width: 1.5;" width="189" x="67.5" y="8"/><ellipse cx="82.5" cy="24" fill="#9B9B9B" rx="11" ry="11" style="stroke: #383838; stroke-width: 1.0;"/><path d="M83.3438,30.75 L80.8906,30.75 L80.8906,20.5 L77.75,20.5 L77.75,18.3594 L86.4844,18.3594 L86.4844,20.5 L83.3438,20.5 L83.3438,30.75 Z "/><text fill="#000000" font-family="sans-serif" font-size="12" lengthAdjust="spacingAndGlyphs" textLength="157" x="96.5" y="28.1543">WithAnnotationInstances</text><!--class AnnotationInstance--><rect fill="#FFFFFF" height="32" id="AnnotationInstance" style="stroke: #383838; stroke-width: 1.5;" width="155" x="84.5" y="100"/><ellipse cx="99.5" cy="116" fill="#9B9B9B" rx="11" ry="11" style="stroke: #383838; stroke-width: 1.0;"/><path d="M100.3438,122.75 L97.8906,122.75 L97.8906,112.5 L94.75,112.5 L94.75,110.3594 L103.4844,110.3594 L103.4844,112.5 L100.3438,112.5 L100.3438,122.75 Z "/><text fill="#000000" font-family="sans-serif" font-size="12" lengthAdjust="spacingAndGlyphs" textLength="123" x="113.5" y="120.1543">AnnotationInstance</text><!--link WithAnnotationInstances to AnnotationInstance--><path d="M162,53.3401 C162,68.7851 162,87.2788 162,99.9582 " fill="none" id="WithAnnotationInstances-AnnotationInstance" style="stroke: #383838; stroke-width: 1.0;"/><polygon fill="#FFFFFF" points="162,40.2673,158,46.2673,162,52.2673,166,46.2673,162,40.2673" style="stroke: #383838; stroke-width: 1.0;"/><text fill="#000000" font-family="sans-serif" font-size="13" lengthAdjust="spacingAndGlyphs" textLength="102" x="43.7437" y="59.9312">annotatedEntity</text><ellipse cx="2.2656" cy="84.5213" fill="#000000" rx="2.5" ry="2.5" style="stroke: #000000; stroke-width: 0.0;"/><text fill="#000000" font-family="sans-serif" font-size="13" lengthAdjust="spacingAndGlyphs" textLength="130" x="7.7656" y="88.9554">annotationInstances</text><!--
@startuml
skinparam shadowing false
skinparam monochrome true
skinparam class {
	BackgroundColor White
}
hide empty members
class WithAnnotationInstances << (T,orchid) >> {
 }
class AnnotationInstance << (T,orchid) >> {
 }
WithAnnotationInstances "annotatedEntity" o- - "* annotationInstances" AnnotationInstance
@enduml

PlantUML version 1.2018.08(Sun Jun 24 14:31:00 CEST 2018)
(GPL source distribution)
Java Runtime: OpenJDK Runtime Environment
JVM: OpenJDK Server VM
Java Version: 1.8.0_171-8u171-b11-0ubuntu0.16.04.1-b11
Operating System: Linux
OS Version: 4.4.0-121-generic
Default Encoding: UTF-8
Language: en
Country: US
--></g></svg>