<?xml version="1.0" encoding="UTF-8" standalone="no"?><svg xmlns="http://www.w3.org/2000/svg" xmlns:xlink="http://www.w3.org/1999/xlink" contentScriptType="application/ecmascript" contentStyleType="text/css" height="164px" preserveAspectRatio="none" style="width:178px;height:164px;" version="1.1" viewBox="0 0 178 164" width="178px" zoomAndPan="magnify"><defs/><g><!--class WithAttributes--><rect fill="#FFFFFF" height="52.8047" id="WithAttributes" style="stroke: #383838; stroke-width: 1.5;" width="146" x="21" y="8"/><ellipse cx="47.25" cy="24" fill="#9B9B9B" rx="11" ry="11" style="stroke: #383838; stroke-width: 1.0;"/><path d="M48.0938,30.75 L45.6406,30.75 L45.6406,20.5 L42.5,20.5 L42.5,18.3594 L51.2344,18.3594 L51.2344,20.5 L48.0938,20.5 L48.0938,30.75 Z "/><text fill="#000000" font-family="sans-serif" font-size="12" lengthAdjust="spacingAndGlyphs" textLength="89" x="63.75" y="28.1543">WithAttributes</text><line style="stroke: #383838; stroke-width: 1.5;" x1="22" x2="166" y1="40" y2="40"/><ellipse cx="32" cy="51.9023" fill="#A6A6A6" rx="3" ry="3" style="stroke: #545454; stroke-width: 1.0;"/><text fill="#000000" font-family="sans-serif" font-size="11" lengthAdjust="spacingAndGlyphs" textLength="120" x="41" y="54.2104">numberOfAttributes()</text><!--class Attribute--><rect fill="#FFFFFF" height="32" id="Attribute" style="stroke: #383838; stroke-width: 1.5;" width="87" x="50.5" y="121"/><ellipse cx="65.5" cy="137" fill="#9B9B9B" rx="11" ry="11" style="stroke: #383838; stroke-width: 1.0;"/><path d="M66.3438,143.75 L63.8906,143.75 L63.8906,133.5 L60.75,133.5 L60.75,131.3594 L69.4844,131.3594 L69.4844,133.5 L66.3438,133.5 L66.3438,143.75 Z "/><text fill="#000000" font-family="sans-serif" font-size="12" lengthAdjust="spacingAndGlyphs" textLength="55" x="79.5" y="141.1543">Attribute</text><!--link WithAttributes to Attribute--><path d="M94,74.2066 C94,90.4528 94,108.4007 94,120.7482 " fill="none" id="WithAttributes-Attribute" style="stroke: #383838; stroke-width: 1.0;"/><polygon fill="#FFFFFF" points="94,61.1204,90,67.1204,94,73.1204,98,67.1204,94,61.1204" style="stroke: #383838; stroke-width: 1.0;"/><text fill="#000000" font-family="sans-serif" font-size="13" lengthAdjust="spacingAndGlyphs" textLength="72" x="14.125" y="80.687">parentType</text><ellipse cx="14.4094" cy="105.5352" fill="#000000" rx="2.5" ry="2.5" style="stroke: #000000; stroke-width: 0.0;"/><text fill="#000000" font-family="sans-serif" font-size="13" lengthAdjust="spacingAndGlyphs" textLength="62" x="19.9094" y="109.9693">attributes</text><!--
@startuml
skinparam shadowing false
skinparam monochrome true
skinparam class {
	BackgroundColor White
}
hide empty members
class WithAttributes << (T,orchid) >> {
	+numberOfAttributes()
 }
class Attribute << (T,orchid) >> {
 }
WithAttributes "parentType" o- - "* attributes" Attribute
@enduml

PlantUML version 1.2018.08(Sun Jun 24 14:31:00 CEST 2018)
(GPL source distribution)
Java Runtime: OpenJDK Runtime Environment
JVM: OpenJDK Server VM
Java Version: 1.8.0_171-8u171-b11-0ubuntu0.16.04.1-b11
Operating System: Linux
OS Version: 4.4.0-121-generic
Default Encoding: UTF-8
Language: en
Country: US
--></g></svg>