<?xml version="1.0" encoding="UTF-8" standalone="no"?><svg xmlns="http://www.w3.org/2000/svg" xmlns:xlink="http://www.w3.org/1999/xlink" contentScriptType="application/ecmascript" contentStyleType="text/css" height="143px" preserveAspectRatio="none" style="width:227px;height:143px;" version="1.1" viewBox="0 0 227 143" width="227px" zoomAndPan="magnify"><defs/><g><!--class CaughtException--><rect fill="#FFFFFF" height="32" id="CaughtException" style="stroke: #383838; stroke-width: 1.5;" width="138" x="61" y="8"/><ellipse cx="76" cy="24" fill="#9B9B9B" rx="11" ry="11" style="stroke: #383838; stroke-width: 1.0;"/><path d="M76.8438,30.75 L74.3906,30.75 L74.3906,20.5 L71.25,20.5 L71.25,18.3594 L79.9844,18.3594 L79.9844,20.5 L76.8438,20.5 L76.8438,30.75 Z "/><text fill="#000000" font-family="sans-serif" font-size="12" lengthAdjust="spacingAndGlyphs" textLength="106" x="90" y="28.1543">CaughtException</text><!--class WithCaughtExceptions--><rect fill="#FFFFFF" height="32" id="WithCaughtExceptions" style="stroke: #383838; stroke-width: 1.5;" width="172" x="44" y="100"/><ellipse cx="59" cy="116" fill="#9B9B9B" rx="11" ry="11" style="stroke: #383838; stroke-width: 1.0;"/><path d="M59.8438,122.75 L57.3906,122.75 L57.3906,112.5 L54.25,112.5 L54.25,110.3594 L62.9844,110.3594 L62.9844,112.5 L59.8438,112.5 L59.8438,122.75 Z "/><text fill="#000000" font-family="sans-serif" font-size="12" lengthAdjust="spacingAndGlyphs" textLength="140" x="73" y="120.1543">WithCaughtExceptions</text><!--link CaughtException to WithCaughtExceptions--><path d="M130,40.2673 C130,56.9175 130,83.3974 130,99.9582 " fill="none" id="CaughtException-WithCaughtExceptions" style="stroke: #383838; stroke-width: 1.0;"/><ellipse cx="-8.2625" cy="55.4971" fill="#000000" rx="2.5" ry="2.5" style="stroke: #000000; stroke-width: 0.0;"/><text fill="#000000" font-family="sans-serif" font-size="13" lengthAdjust="spacingAndGlyphs" textLength="113" x="-2.7625" y="59.9312">caughtExceptions</text><text fill="#000000" font-family="sans-serif" font-size="13" lengthAdjust="spacingAndGlyphs" textLength="86" x="29.2188" y="88.9554">definingEntity</text><!--
@startuml
skinparam shadowing false
skinparam monochrome true
skinparam class {
	BackgroundColor White
}
hide empty members
class CaughtException << (T,orchid) >> {
 }
class WithCaughtExceptions << (T,orchid) >> {
 }
CaughtException "* caughtExceptions" - - "definingEntity" WithCaughtExceptions
@enduml

PlantUML version 1.2018.08(Sun Jun 24 14:31:00 CEST 2018)
(GPL source distribution)
Java Runtime: OpenJDK Runtime Environment
JVM: OpenJDK Server VM
Java Version: 1.8.0_171-8u171-b11-0ubuntu0.16.04.1-b11
Operating System: Linux
OS Version: 4.4.0-121-generic
Default Encoding: UTF-8
Language: en
Country: US
--></g></svg>