<?xml version="1.0" encoding="UTF-8" standalone="no"?><svg xmlns="http://www.w3.org/2000/svg" xmlns:xlink="http://www.w3.org/1999/xlink" contentScriptType="application/ecmascript" contentStyleType="text/css" height="184px" preserveAspectRatio="none" style="width:188px;height:184px;" version="1.1" viewBox="0 0 188 184" width="188px" zoomAndPan="magnify"><defs/><g><!--class WithComments--><rect fill="#FFFFFF" height="52.8047" id="WithComments" style="stroke: #383838; stroke-width: 1.5;" width="153" x="24.5" y="8"/><ellipse cx="52.1" cy="24" fill="#9B9B9B" rx="11" ry="11" style="stroke: #383838; stroke-width: 1.0;"/><path d="M52.9438,30.75 L50.4906,30.75 L50.4906,20.5 L47.35,20.5 L47.35,18.3594 L56.0844,18.3594 L56.0844,20.5 L52.9438,20.5 L52.9438,30.75 Z "/><text fill="#000000" font-family="sans-serif" font-size="12" lengthAdjust="spacingAndGlyphs" textLength="93" x="68.9" y="28.1543">WithComments</text><line style="stroke: #383838; stroke-width: 1.5;" x1="25.5" x2="176.5" y1="40" y2="40"/><ellipse cx="35.5" cy="51.9023" fill="#A6A6A6" rx="3" ry="3" style="stroke: #545454; stroke-width: 1.0;"/><text fill="#000000" font-family="sans-serif" font-size="11" lengthAdjust="spacingAndGlyphs" textLength="127" x="44.5" y="54.2104">numberOfComments()</text><!--class Comment--><rect fill="#FFFFFF" height="52.8047" id="Comment" style="stroke: #383838; stroke-width: 1.5;" width="91" x="55.5" y="121"/><ellipse cx="70.5" cy="137" fill="#9B9B9B" rx="11" ry="11" style="stroke: #383838; stroke-width: 1.0;"/><path d="M71.3438,143.75 L68.8906,143.75 L68.8906,133.5 L65.75,133.5 L65.75,131.3594 L74.4844,131.3594 L74.4844,133.5 L71.3438,133.5 L71.3438,143.75 Z "/><text fill="#000000" font-family="sans-serif" font-size="12" lengthAdjust="spacingAndGlyphs" textLength="59" x="84.5" y="141.1543">Comment</text><line style="stroke: #383838; stroke-width: 1.5;" x1="56.5" x2="145.5" y1="153" y2="153"/><ellipse cx="66.5" cy="164.9023" fill="none" rx="3" ry="3" style="stroke: #545454; stroke-width: 1.0;"/><text fill="#000000" font-family="sans-serif" font-size="11" lengthAdjust="spacingAndGlyphs" textLength="42" x="75.5" y="167.2104">content</text><!--link WithComments to Comment--><path d="M101,61.245 C101,79.1769 101,102.9933 101,120.895 " fill="none" id="WithComments-Comment" style="stroke: #383838; stroke-width: 1.0;"/><text fill="#000000" font-family="sans-serif" font-size="13" lengthAdjust="spacingAndGlyphs" textLength="60" x="34.4375" y="80.8389">container</text><ellipse cx="17.25" cy="105.679" fill="#000000" rx="2.5" ry="2.5" style="stroke: #000000; stroke-width: 0.0;"/><text fill="#000000" font-family="sans-serif" font-size="13" lengthAdjust="spacingAndGlyphs" textLength="69" x="22.75" y="110.1131">comments</text><!--
@startuml
skinparam shadowing false
skinparam monochrome true
skinparam class {
	BackgroundColor White
}
hide empty members
class WithComments << (T,orchid) >> {
	+numberOfComments()
 }
class Comment << (T,orchid) >> {
	+content
 }
WithComments "container" - - "* comments" Comment
@enduml

PlantUML version 1.2018.08(Sun Jun 24 14:31:00 CEST 2018)
(GPL source distribution)
Java Runtime: OpenJDK Runtime Environment
JVM: OpenJDK Server VM
Java Version: 1.8.0_171-8u171-b11-0ubuntu0.16.04.1-b11
Operating System: Linux
OS Version: 4.4.0-121-generic
Default Encoding: UTF-8
Language: en
Country: US
--></g></svg>