<?xml version="1.0" encoding="UTF-8" standalone="no"?><svg xmlns="http://www.w3.org/2000/svg" xmlns:xlink="http://www.w3.org/1999/xlink" contentScriptType="application/ecmascript" contentStyleType="text/css" height="143px" preserveAspectRatio="none" style="width:250px;height:143px;" version="1.1" viewBox="0 0 250 143" width="250px" zoomAndPan="magnify"><defs/><g><!--class CompilationUnit--><rect fill="#FFFFFF" height="32" id="CompilationUnit" style="stroke: #383838; stroke-width: 1.5;" width="130" x="96" y="8"/><ellipse cx="111" cy="24" fill="#9B9B9B" rx="11" ry="11" style="stroke: #383838; stroke-width: 1.0;"/><path d="M111.8438,30.75 L109.3906,30.75 L109.3906,20.5 L106.25,20.5 L106.25,18.3594 L114.9844,18.3594 L114.9844,20.5 L111.8438,20.5 L111.8438,30.75 Z "/><text fill="#000000" font-family="sans-serif" font-size="12" lengthAdjust="spacingAndGlyphs" textLength="98" x="125" y="28.1543">CompilationUnit</text><!--class WithCompilationUnit--><rect fill="#FFFFFF" height="32" id="WithCompilationUnit" style="stroke: #383838; stroke-width: 1.5;" width="157" x="82.5" y="100"/><ellipse cx="97.5" cy="116" fill="#9B9B9B" rx="11" ry="11" style="stroke: #383838; stroke-width: 1.0;"/><path d="M98.3438,122.75 L95.8906,122.75 L95.8906,112.5 L92.75,112.5 L92.75,110.3594 L101.4844,110.3594 L101.4844,112.5 L98.3438,112.5 L98.3438,122.75 Z "/><text fill="#000000" font-family="sans-serif" font-size="12" lengthAdjust="spacingAndGlyphs" textLength="125" x="111.5" y="120.1543">WithCompilationUnit</text><!--link CompilationUnit to WithCompilationUnit--><path d="M161,40.2673 C161,56.9175 161,83.3974 161,99.9582 " fill="none" id="CompilationUnit-WithCompilationUnit" style="stroke: #383838; stroke-width: 1.0;"/><text fill="#000000" font-family="sans-serif" font-size="13" lengthAdjust="spacingAndGlyphs" textLength="100" x="45.0625" y="59.9312">compilationUnit</text><text fill="#000000" font-family="sans-serif" font-size="13" lengthAdjust="spacingAndGlyphs" textLength="140" x="-3.0625" y="88.9554">compilationUnitOwner</text><!--
@startuml
skinparam shadowing false
skinparam monochrome true
skinparam class {
	BackgroundColor White
}
hide empty members
class CompilationUnit << (T,orchid) >> {
 }
class WithCompilationUnit << (T,orchid) >> {
 }
CompilationUnit "compilationUnit" - - "compilationUnitOwner" WithCompilationUnit
@enduml

PlantUML version 1.2018.08(Sun Jun 24 14:31:00 CEST 2018)
(GPL source distribution)
Java Runtime: OpenJDK Runtime Environment
JVM: OpenJDK Server VM
Java Version: 1.8.0_171-8u171-b11-0ubuntu0.16.04.1-b11
Operating System: Linux
OS Version: 4.4.0-121-generic
Default Encoding: UTF-8
Language: en
Country: US
--></g></svg>