<?xml version="1.0" encoding="UTF-8" standalone="no"?><svg xmlns="http://www.w3.org/2000/svg" xmlns:xlink="http://www.w3.org/1999/xlink" contentScriptType="application/ecmascript" contentStyleType="text/css" height="143px" preserveAspectRatio="none" style="width:258px;height:143px;" version="1.1" viewBox="0 0 258 143" width="258px" zoomAndPan="magnify"><defs/><g><!--class WithDeclaredExceptions--><rect fill="#FFFFFF" height="32" id="WithDeclaredExceptions" style="stroke: #383838; stroke-width: 1.5;" width="183" x="64.5" y="8"/><ellipse cx="79.5" cy="24" fill="#9B9B9B" rx="11" ry="11" style="stroke: #383838; stroke-width: 1.0;"/><path d="M80.3438,30.75 L77.8906,30.75 L77.8906,20.5 L74.75,20.5 L74.75,18.3594 L83.4844,18.3594 L83.4844,20.5 L80.3438,20.5 L80.3438,30.75 Z "/><text fill="#000000" font-family="sans-serif" font-size="12" lengthAdjust="spacingAndGlyphs" textLength="151" x="93.5" y="28.1543">WithDeclaredExceptions</text><!--class DeclaredException--><rect fill="#FFFFFF" height="32" id="DeclaredException" style="stroke: #383838; stroke-width: 1.5;" width="149" x="81.5" y="100"/><ellipse cx="96.5" cy="116" fill="#9B9B9B" rx="11" ry="11" style="stroke: #383838; stroke-width: 1.0;"/><path d="M97.3438,122.75 L94.8906,122.75 L94.8906,112.5 L91.75,112.5 L91.75,110.3594 L100.4844,110.3594 L100.4844,112.5 L97.3438,112.5 L97.3438,122.75 Z "/><text fill="#000000" font-family="sans-serif" font-size="12" lengthAdjust="spacingAndGlyphs" textLength="117" x="110.5" y="120.1543">DeclaredException</text><!--link WithDeclaredExceptions to DeclaredException--><path d="M156,40.2673 C156,56.9175 156,83.3974 156,99.9582 " fill="none" id="WithDeclaredExceptions-DeclaredException" style="stroke: #383838; stroke-width: 1.0;"/><text fill="#000000" font-family="sans-serif" font-size="13" lengthAdjust="spacingAndGlyphs" textLength="86" x="56.2937" y="59.9312">definingEntity</text><ellipse cx="3.2969" cy="84.5213" fill="#000000" rx="2.5" ry="2.5" style="stroke: #000000; stroke-width: 0.0;"/><text fill="#000000" font-family="sans-serif" font-size="13" lengthAdjust="spacingAndGlyphs" textLength="124" x="8.7969" y="88.9554">declaredExceptions</text><!--
@startuml
skinparam shadowing false
skinparam monochrome true
skinparam class {
	BackgroundColor White
}
hide empty members
class WithDeclaredExceptions << (T,orchid) >> {
 }
class DeclaredException << (T,orchid) >> {
 }
WithDeclaredExceptions "definingEntity" - - "* declaredExceptions" DeclaredException
@enduml

PlantUML version 1.2018.08(Sun Jun 24 14:31:00 CEST 2018)
(GPL source distribution)
Java Runtime: OpenJDK Runtime Environment
JVM: OpenJDK Server VM
Java Version: 1.8.0_171-8u171-b11-0ubuntu0.16.04.1-b11
Operating System: Linux
OS Version: 4.4.0-121-generic
Default Encoding: UTF-8
Language: en
Country: US
--></g></svg>