<?xml version="1.0" encoding="UTF-8" standalone="no"?><svg xmlns="http://www.w3.org/2000/svg" xmlns:xlink="http://www.w3.org/1999/xlink" contentScriptType="application/ecmascript" contentStyleType="text/css" height="143px" preserveAspectRatio="none" style="width:308px;height:143px;" version="1.1" viewBox="0 0 308 143" width="308px" zoomAndPan="magnify"><defs/><g><!--class WithDereferencedInvocations--><rect fill="#FFFFFF" height="32" id="WithDereferencedInvocations" style="stroke: #383838; stroke-width: 1.5;" width="216" x="81" y="8"/><ellipse cx="96" cy="24" fill="#9B9B9B" rx="11" ry="11" style="stroke: #383838; stroke-width: 1.0;"/><path d="M96.8438,30.75 L94.3906,30.75 L94.3906,20.5 L91.25,20.5 L91.25,18.3594 L99.9844,18.3594 L99.9844,20.5 L96.8438,20.5 L96.8438,30.75 Z "/><text fill="#000000" font-family="sans-serif" font-size="12" lengthAdjust="spacingAndGlyphs" textLength="184" x="110" y="28.1543">WithDereferencedInvocations</text><!--class DereferencedInvocation--><rect fill="#FFFFFF" height="32" id="DereferencedInvocation" style="stroke: #383838; stroke-width: 1.5;" width="182" x="98" y="100"/><ellipse cx="113" cy="116" fill="#9B9B9B" rx="11" ry="11" style="stroke: #383838; stroke-width: 1.0;"/><path d="M113.8438,122.75 L111.3906,122.75 L111.3906,112.5 L108.25,112.5 L108.25,110.3594 L116.9844,110.3594 L116.9844,112.5 L113.8438,112.5 L113.8438,122.75 Z "/><text fill="#000000" font-family="sans-serif" font-size="12" lengthAdjust="spacingAndGlyphs" textLength="150" x="127" y="120.1543">DereferencedInvocation</text><!--link WithDereferencedInvocations to DereferencedInvocation--><path d="M189,40.2673 C189,56.9175 189,83.3974 189,99.9582 " fill="none" id="WithDereferencedInvocations-DereferencedInvocation" style="stroke: #383838; stroke-width: 1.0;"/><text fill="#000000" font-family="sans-serif" font-size="13" lengthAdjust="spacingAndGlyphs" textLength="66" x="112.4813" y="59.9312">referencer</text><ellipse cx="-2.375" cy="84.5213" fill="#000000" rx="2.5" ry="2.5" style="stroke: #000000; stroke-width: 0.0;"/><text fill="#000000" font-family="sans-serif" font-size="13" lengthAdjust="spacingAndGlyphs" textLength="157" x="3.125" y="88.9554">dereferencedInvocations</text><!--
@startuml
skinparam shadowing false
skinparam monochrome true
skinparam class {
	BackgroundColor White
}
hide empty members
class WithDereferencedInvocations << (T,orchid) >> {
 }
class DereferencedInvocation << (T,orchid) >> {
 }
WithDereferencedInvocations "referencer" - - "* dereferencedInvocations" DereferencedInvocation
@enduml

PlantUML version 1.2018.08(Sun Jun 24 14:31:00 CEST 2018)
(GPL source distribution)
Java Runtime: OpenJDK Runtime Environment
JVM: OpenJDK Server VM
Java Version: 1.8.0_171-8u171-b11-0ubuntu0.16.04.1-b11
Operating System: Linux
OS Version: 4.4.0-121-generic
Default Encoding: UTF-8
Language: en
Country: US
--></g></svg>