<?xml version="1.0" encoding="UTF-8" standalone="no"?><svg xmlns="http://www.w3.org/2000/svg" xmlns:xlink="http://www.w3.org/1999/xlink" contentScriptType="application/ecmascript" contentStyleType="text/css" height="143px" preserveAspectRatio="none" style="width:179px;height:143px;" version="1.1" viewBox="0 0 179 143" width="179px" zoomAndPan="magnify"><defs/><g><!--class EnumValue--><rect fill="#FFFFFF" height="32" id="EnumValue" style="stroke: #383838; stroke-width: 1.5;" width="102" x="49" y="8"/><ellipse cx="64" cy="24" fill="#9B9B9B" rx="11" ry="11" style="stroke: #383838; stroke-width: 1.0;"/><path d="M64.8438,30.75 L62.3906,30.75 L62.3906,20.5 L59.25,20.5 L59.25,18.3594 L67.9844,18.3594 L67.9844,20.5 L64.8438,20.5 L64.8438,30.75 Z "/><text fill="#000000" font-family="sans-serif" font-size="12" lengthAdjust="spacingAndGlyphs" textLength="70" x="78" y="28.1543">EnumValue</text><!--class WithEnumValues--><rect fill="#FFFFFF" height="32" id="WithEnumValues" style="stroke: #383838; stroke-width: 1.5;" width="136" x="32" y="100"/><ellipse cx="47" cy="116" fill="#9B9B9B" rx="11" ry="11" style="stroke: #383838; stroke-width: 1.0;"/><path d="M47.8438,122.75 L45.3906,122.75 L45.3906,112.5 L42.25,112.5 L42.25,110.3594 L50.9844,110.3594 L50.9844,112.5 L47.8438,112.5 L47.8438,122.75 Z "/><text fill="#000000" font-family="sans-serif" font-size="12" lengthAdjust="spacingAndGlyphs" textLength="104" x="61" y="120.1543">WithEnumValues</text><!--link EnumValue to WithEnumValues--><path d="M100,40.2673 C100,53.0151 100,71.5249 100,86.9335 " fill="none" id="EnumValue-WithEnumValues" style="stroke: #383838; stroke-width: 1.0;"/><polygon fill="#FFFFFF" points="100,99.9582,104,93.9582,100,87.9582,96,93.9582,100,99.9582" style="stroke: #383838; stroke-width: 1.0;"/><ellipse cx="-0.0031" cy="55.4971" fill="#000000" rx="2.5" ry="2.5" style="stroke: #000000; stroke-width: 0.0;"/><text fill="#000000" font-family="sans-serif" font-size="13" lengthAdjust="spacingAndGlyphs" textLength="80" x="5.4969" y="59.9312">enumValues</text><text fill="#000000" font-family="sans-serif" font-size="13" lengthAdjust="spacingAndGlyphs" textLength="79" x="7.4219" y="88.9554">parentEnum</text><!--
@startuml
skinparam shadowing false
skinparam monochrome true
skinparam class {
	BackgroundColor White
}
hide empty members
class EnumValue << (T,orchid) >> {
 }
class WithEnumValues << (T,orchid) >> {
 }
EnumValue "* enumValues" - -o "parentEnum" WithEnumValues
@enduml

PlantUML version 1.2018.08(Sun Jun 24 14:31:00 CEST 2018)
(GPL source distribution)
Java Runtime: OpenJDK Runtime Environment
JVM: OpenJDK Server VM
Java Version: 1.8.0_171-8u171-b11-0ubuntu0.16.04.1-b11
Operating System: Linux
OS Version: 4.4.0-121-generic
Default Encoding: UTF-8
Language: en
Country: US
--></g></svg>