<?xml version="1.0" encoding="UTF-8" standalone="no"?><svg xmlns="http://www.w3.org/2000/svg" xmlns:xlink="http://www.w3.org/1999/xlink" contentScriptType="application/ecmascript" contentStyleType="text/css" height="143px" preserveAspectRatio="none" style="width:191px;height:143px;" version="1.1" viewBox="0 0 191 143" width="191px" zoomAndPan="magnify"><defs/><g><!--class Exception--><rect fill="#FFFFFF" height="32" id="Exception" style="stroke: #383838; stroke-width: 1.5;" width="93" x="70.5" y="8"/><ellipse cx="85.5" cy="24" fill="#9B9B9B" rx="11" ry="11" style="stroke: #383838; stroke-width: 1.0;"/><path d="M86.3438,30.75 L83.8906,30.75 L83.8906,20.5 L80.75,20.5 L80.75,18.3594 L89.4844,18.3594 L89.4844,20.5 L86.3438,20.5 L86.3438,30.75 Z "/><text fill="#000000" font-family="sans-serif" font-size="12" lengthAdjust="spacingAndGlyphs" textLength="61" x="99.5" y="28.1543">Exception</text><!--class WithExceptions--><rect fill="#FFFFFF" height="32" id="WithExceptions" style="stroke: #383838; stroke-width: 1.5;" width="127" x="53.5" y="100"/><ellipse cx="68.5" cy="116" fill="#9B9B9B" rx="11" ry="11" style="stroke: #383838; stroke-width: 1.0;"/><path d="M69.3438,122.75 L66.8906,122.75 L66.8906,112.5 L63.75,112.5 L63.75,110.3594 L72.4844,110.3594 L72.4844,112.5 L69.3438,112.5 L69.3438,122.75 Z "/><text fill="#000000" font-family="sans-serif" font-size="12" lengthAdjust="spacingAndGlyphs" textLength="95" x="82.5" y="120.1543">WithExceptions</text><!--link Exception to WithExceptions--><path d="M117,40.2673 C117,56.9175 117,83.3974 117,99.9582 " fill="none" id="Exception-WithExceptions" style="stroke: #383838; stroke-width: 1.0;"/><ellipse cx="29.75" cy="55.4971" fill="#000000" rx="2.5" ry="2.5" style="stroke: #000000; stroke-width: 0.0;"/><text fill="#000000" font-family="sans-serif" font-size="13" lengthAdjust="spacingAndGlyphs" textLength="69" x="35.25" y="59.9312">exceptions</text><text fill="#000000" font-family="sans-serif" font-size="13" lengthAdjust="spacingAndGlyphs" textLength="96" x="4.5" y="88.9554">exceptionClass</text><!--
@startuml
skinparam shadowing false
skinparam monochrome true
skinparam class {
	BackgroundColor White
}
hide empty members
class Exception << (T,orchid) >> {
 }
class WithExceptions << (T,orchid) >> {
 }
Exception "* exceptions" - - "exceptionClass" WithExceptions
@enduml

PlantUML version 1.2018.08(Sun Jun 24 14:31:00 CEST 2018)
(GPL source distribution)
Java Runtime: OpenJDK Runtime Environment
JVM: OpenJDK Server VM
Java Version: 1.8.0_171-8u171-b11-0ubuntu0.16.04.1-b11
Operating System: Linux
OS Version: 4.4.0-121-generic
Default Encoding: UTF-8
Language: en
Country: US
--></g></svg>