<?xml version="1.0" encoding="UTF-8" standalone="no"?><svg xmlns="http://www.w3.org/2000/svg" xmlns:xlink="http://www.w3.org/1999/xlink" contentScriptType="application/ecmascript" contentStyleType="text/css" height="143px" preserveAspectRatio="none" style="width:411px;height:143px;" version="1.1" viewBox="0 0 411 143" width="411px" zoomAndPan="magnify"><defs/><g><!--class FileInclude--><rect fill="#FFFFFF" height="32" id="FileInclude" style="stroke: #383838; stroke-width: 1.5;" width="98" x="136.854" y="8"/><ellipse cx="151.854" cy="24" fill="#9B9B9B" rx="11" ry="11" style="stroke: #383838; stroke-width: 1.0;"/><path d="M152.6978,30.75 L150.2446,30.75 L150.2446,20.5 L147.104,20.5 L147.104,18.3594 L155.8384,18.3594 L155.8384,20.5 L152.6978,20.5 L152.6978,30.75 Z "/><text fill="#000000" font-family="sans-serif" font-size="12" lengthAdjust="spacingAndGlyphs" textLength="66" x="165.854" y="28.1543">FileInclude</text><!--class WithFileInclude--><rect fill="#FFFFFF" height="32" id="WithFileInclude" style="stroke: #383838; stroke-width: 1.5;" width="125" x="123.354" y="100"/><ellipse cx="138.354" cy="116" fill="#9B9B9B" rx="11" ry="11" style="stroke: #383838; stroke-width: 1.0;"/><path d="M139.1977,122.75 L136.7446,122.75 L136.7446,112.5 L133.604,112.5 L133.604,110.3594 L142.3384,110.3594 L142.3384,112.5 L139.1977,112.5 L139.1977,122.75 Z "/><text fill="#000000" font-family="sans-serif" font-size="12" lengthAdjust="spacingAndGlyphs" textLength="93" x="152.354" y="120.1543">WithFileInclude</text><!--link FileInclude to WithFileInclude--><path d="M176,40.2673 C172.122,56.9175 172.139,83.3974 176.053,99.9582 " fill="none" id="FileInclude-WithFileInclude" style="stroke: #383838; stroke-width: 1.0;"/><ellipse cx="-18.7347" cy="55.4971" fill="#000000" rx="2.5" ry="2.5" style="stroke: #000000; stroke-width: 0.0;"/><text fill="#000000" font-family="sans-serif" font-size="13" lengthAdjust="spacingAndGlyphs" textLength="159" x="-13.2347" y="59.9312">outgoingIncludeRelations</text><text fill="#000000" font-family="sans-serif" font-size="13" lengthAdjust="spacingAndGlyphs" textLength="43" x="122.2933" y="88.9554">source</text><!--link FileInclude to WithFileInclude--><path d="M196.288,40.2673 C200.395,56.9175 200.376,83.3974 196.232,99.9582 " fill="none" id="FileInclude-WithFileInclude" style="stroke: #383838; stroke-width: 1.0;"/><ellipse cx="232.5263" cy="55.4971" fill="#000000" rx="2.5" ry="2.5" style="stroke: #000000; stroke-width: 0.0;"/><text fill="#000000" font-family="sans-serif" font-size="13" lengthAdjust="spacingAndGlyphs" textLength="161" x="238.0263" y="59.9312">incomingIncludeRelations</text><text fill="#000000" font-family="sans-serif" font-size="13" lengthAdjust="spacingAndGlyphs" textLength="39" x="206.5026" y="88.9554">target</text><!--
@startuml
skinparam shadowing false
skinparam monochrome true
skinparam class {
	BackgroundColor White
}
hide empty members
class FileInclude << (T,orchid) >> {
 }
class WithFileInclude << (T,orchid) >> {
 }
FileInclude "* outgoingIncludeRelations" - - "source" WithFileInclude
FileInclude "* incomingIncludeRelations" - - "target" WithFileInclude
@enduml

PlantUML version 1.2018.08(Sun Jun 24 14:31:00 CEST 2018)
(GPL source distribution)
Java Runtime: OpenJDK Runtime Environment
JVM: OpenJDK Server VM
Java Version: 1.8.0_171-8u171-b11-0ubuntu0.16.04.1-b11
Operating System: Linux
OS Version: 4.4.0-121-generic
Default Encoding: UTF-8
Language: en
Country: US
--></g></svg>