<?xml version="1.0" encoding="UTF-8" standalone="no"?><svg xmlns="http://www.w3.org/2000/svg" xmlns:xlink="http://www.w3.org/1999/xlink" contentScriptType="application/ecmascript" contentStyleType="text/css" height="143px" preserveAspectRatio="none" style="width:276px;height:143px;" version="1.1" viewBox="0 0 276 143" width="276px" zoomAndPan="magnify"><defs/><g><!--class Folder--><rect fill="#FFFFFF" height="32" id="Folder" style="stroke: #383838; stroke-width: 1.5;" width="71" x="163.5" y="8"/><ellipse cx="178.5" cy="24" fill="#9B9B9B" rx="11" ry="11" style="stroke: #383838; stroke-width: 1.0;"/><path d="M179.3438,30.75 L176.8906,30.75 L176.8906,20.5 L173.75,20.5 L173.75,18.3594 L182.4844,18.3594 L182.4844,20.5 L179.3438,20.5 L179.3438,30.75 Z "/><text fill="#000000" font-family="sans-serif" font-size="12" lengthAdjust="spacingAndGlyphs" textLength="39" x="192.5" y="28.1543">Folder</text><!--class FileSystemEntity--><rect fill="#FFFFFF" height="32" id="FileSystemEntity" style="stroke: #383838; stroke-width: 1.5;" width="133" x="132.5" y="100"/><ellipse cx="147.5" cy="116" fill="#9B9B9B" rx="11" ry="11" style="stroke: #383838; stroke-width: 1.0;"/><path d="M148.3438,122.75 L145.8906,122.75 L145.8906,112.5 L142.75,112.5 L142.75,110.3594 L151.4844,110.3594 L151.4844,112.5 L148.3438,112.5 L148.3438,122.75 Z "/><text fill="#000000" font-family="sans-serif" font-size="12" lengthAdjust="spacingAndGlyphs" textLength="101" x="161.5" y="120.1543">FileSystemEntity</text><!--link Folder to FileSystemEntity--><path d="M199,40.2673 C199,56.9175 199,83.3974 199,99.9582 " fill="none" id="Folder-FileSystemEntity" style="stroke: #383838; stroke-width: 1.0;"/><text fill="#000000" font-family="sans-serif" font-size="13" lengthAdjust="spacingAndGlyphs" textLength="81" x="105.0906" y="59.9312">parentFolder</text><ellipse cx="-4.0938" cy="84.5213" fill="#000000" rx="2.5" ry="2.5" style="stroke: #000000; stroke-width: 0.0;"/><text fill="#000000" font-family="sans-serif" font-size="13" lengthAdjust="spacingAndGlyphs" textLength="167" x="1.4063" y="88.9554">childrenFileSystemEntities</text><!--
@startuml
skinparam shadowing false
skinparam monochrome true
skinparam class {
	BackgroundColor White
}
hide empty members
class Folder << (T,orchid) >> {
 }
class FileSystemEntity << (T,orchid) >> {
 }
Folder "parentFolder" - - "* childrenFileSystemEntities" FileSystemEntity
@enduml

PlantUML version 1.2018.08(Sun Jun 24 14:31:00 CEST 2018)
(GPL source distribution)
Java Runtime: OpenJDK Runtime Environment
JVM: OpenJDK Server VM
Java Version: 1.8.0_171-8u171-b11-0ubuntu0.16.04.1-b11
Operating System: Linux
OS Version: 4.4.0-121-generic
Default Encoding: UTF-8
Language: en
Country: US
--></g></svg>