<?xml version="1.0" encoding="UTF-8" standalone="no"?><svg xmlns="http://www.w3.org/2000/svg" xmlns:xlink="http://www.w3.org/1999/xlink" contentScriptType="application/ecmascript" contentStyleType="text/css" height="143px" preserveAspectRatio="none" style="width:168px;height:143px;" version="1.1" viewBox="0 0 168 143" width="168px" zoomAndPan="magnify"><defs/><g><!--class WithFunctions--><rect fill="#FFFFFF" height="32" id="WithFunctions" style="stroke: #383838; stroke-width: 1.5;" width="120" x="37" y="8"/><ellipse cx="52" cy="24" fill="#9B9B9B" rx="11" ry="11" style="stroke: #383838; stroke-width: 1.0;"/><path d="M52.8438,30.75 L50.3906,30.75 L50.3906,20.5 L47.25,20.5 L47.25,18.3594 L55.9844,18.3594 L55.9844,20.5 L52.8438,20.5 L52.8438,30.75 Z "/><text fill="#000000" font-family="sans-serif" font-size="12" lengthAdjust="spacingAndGlyphs" textLength="88" x="66" y="28.1543">WithFunctions</text><!--class Function--><rect fill="#FFFFFF" height="32" id="Function" style="stroke: #383838; stroke-width: 1.5;" width="86" x="54" y="100"/><ellipse cx="69" cy="116" fill="#9B9B9B" rx="11" ry="11" style="stroke: #383838; stroke-width: 1.0;"/><path d="M69.8438,122.75 L67.3906,122.75 L67.3906,112.5 L64.25,112.5 L64.25,110.3594 L72.9844,110.3594 L72.9844,112.5 L69.8438,112.5 L69.8438,122.75 Z "/><text fill="#000000" font-family="sans-serif" font-size="12" lengthAdjust="spacingAndGlyphs" textLength="54" x="83" y="120.1543">Function</text><!--link WithFunctions to Function--><path d="M97,53.3401 C97,68.7851 97,87.2788 97,99.9582 " fill="none" id="WithFunctions-Function" style="stroke: #383838; stroke-width: 1.0;"/><polygon fill="#FFFFFF" points="97,40.2673,93,46.2673,97,52.2673,101,46.2673,97,40.2673" style="stroke: #383838; stroke-width: 1.0;"/><text fill="#000000" font-family="sans-serif" font-size="13" lengthAdjust="spacingAndGlyphs" textLength="91" x="-8.5031" y="59.9312">functionOwner</text><ellipse cx="21.6406" cy="84.5213" fill="#000000" rx="2.5" ry="2.5" style="stroke: #000000; stroke-width: 0.0;"/><text fill="#000000" font-family="sans-serif" font-size="13" lengthAdjust="spacingAndGlyphs" textLength="58" x="27.1406" y="88.9554">functions</text><!--
@startuml
skinparam shadowing false
skinparam monochrome true
skinparam class {
	BackgroundColor White
}
hide empty members
class WithFunctions << (T,orchid) >> {
 }
class Function << (T,orchid) >> {
 }
WithFunctions "functionOwner" o- - "* functions" Function
@enduml

PlantUML version 1.2018.08(Sun Jun 24 14:31:00 CEST 2018)
(GPL source distribution)
Java Runtime: OpenJDK Runtime Environment
JVM: OpenJDK Server VM
Java Version: 1.8.0_171-8u171-b11-0ubuntu0.16.04.1-b11
Operating System: Linux
OS Version: 4.4.0-121-generic
Default Encoding: UTF-8
Language: en
Country: US
--></g></svg>