<?xml version="1.0" encoding="UTF-8" standalone="no"?><svg xmlns="http://www.w3.org/2000/svg" xmlns:xlink="http://www.w3.org/1999/xlink" contentScriptType="application/ecmascript" contentStyleType="text/css" height="143px" preserveAspectRatio="none" style="width:205px;height:143px;" version="1.1" viewBox="0 0 205 143" width="205px" zoomAndPan="magnify"><defs/><g><!--class GlobalVariable--><rect fill="#FFFFFF" height="32" id="GlobalVariable" style="stroke: #383838; stroke-width: 1.5;" width="122" x="53" y="8"/><ellipse cx="68" cy="24" fill="#9B9B9B" rx="11" ry="11" style="stroke: #383838; stroke-width: 1.0;"/><path d="M68.8438,30.75 L66.3906,30.75 L66.3906,20.5 L63.25,20.5 L63.25,18.3594 L71.9844,18.3594 L71.9844,20.5 L68.8438,20.5 L68.8438,30.75 Z "/><text fill="#000000" font-family="sans-serif" font-size="12" lengthAdjust="spacingAndGlyphs" textLength="90" x="82" y="28.1543">GlobalVariable</text><!--class GlobalVariableScope--><rect fill="#FFFFFF" height="32" id="GlobalVariableScope" style="stroke: #383838; stroke-width: 1.5;" width="161" x="33.5" y="100"/><ellipse cx="48.5" cy="116" fill="#9B9B9B" rx="11" ry="11" style="stroke: #383838; stroke-width: 1.0;"/><path d="M49.3438,122.75 L46.8906,122.75 L46.8906,112.5 L43.75,112.5 L43.75,110.3594 L52.4844,110.3594 L52.4844,112.5 L49.3438,112.5 L49.3438,122.75 Z "/><text fill="#000000" font-family="sans-serif" font-size="12" lengthAdjust="spacingAndGlyphs" textLength="129" x="62.5" y="120.1543">GlobalVariableScope</text><!--link GlobalVariable to GlobalVariableScope--><path d="M114,40.2673 C114,53.0151 114,71.5249 114,86.9335 " fill="none" id="GlobalVariable-GlobalVariableScope" style="stroke: #383838; stroke-width: 1.0;"/><polygon fill="#FFFFFF" points="114,99.9582,118,93.9582,114,87.9582,110,93.9582,114,99.9582" style="stroke: #383838; stroke-width: 1.0;"/><ellipse cx="-5.7125" cy="55.4971" fill="#000000" rx="2.5" ry="2.5" style="stroke: #000000; stroke-width: 0.0;"/><text fill="#000000" font-family="sans-serif" font-size="13" lengthAdjust="spacingAndGlyphs" textLength="97" x="-0.2125" y="59.9312">globalVariables</text><text fill="#000000" font-family="sans-serif" font-size="13" lengthAdjust="spacingAndGlyphs" textLength="82" x="17.9063" y="88.9554">parentScope</text><!--
@startuml
skinparam shadowing false
skinparam monochrome true
skinparam class {
	BackgroundColor White
}
hide empty members
class GlobalVariable << (T,orchid) >> {
 }
class GlobalVariableScope << (T,orchid) >> {
 }
GlobalVariable "* globalVariables" - -o "parentScope" GlobalVariableScope
@enduml

PlantUML version 1.2018.08(Sun Jun 24 14:31:00 CEST 2018)
(GPL source distribution)
Java Runtime: OpenJDK Runtime Environment
JVM: OpenJDK Server VM
Java Version: 1.8.0_171-8u171-b11-0ubuntu0.16.04.1-b11
Operating System: Linux
OS Version: 4.4.0-121-generic
Default Encoding: UTF-8
Language: en
Country: US
--></g></svg>