<?xml version="1.0" encoding="UTF-8" standalone="no"?><svg xmlns="http://www.w3.org/2000/svg" xmlns:xlink="http://www.w3.org/1999/xlink" contentScriptType="application/ecmascript" contentStyleType="text/css" height="143px" preserveAspectRatio="none" style="width:154px;height:143px;" version="1.1" viewBox="0 0 154 143" width="154px" zoomAndPan="magnify"><defs/><g><!--class WithHeader--><rect fill="#FFFFFF" height="32" id="WithHeader" style="stroke: #383838; stroke-width: 1.5;" width="105" x="38.5" y="8"/><ellipse cx="53.5" cy="24" fill="#9B9B9B" rx="11" ry="11" style="stroke: #383838; stroke-width: 1.0;"/><path d="M54.3438,30.75 L51.8906,30.75 L51.8906,20.5 L48.75,20.5 L48.75,18.3594 L57.4844,18.3594 L57.4844,20.5 L54.3438,20.5 L54.3438,30.75 Z "/><text fill="#000000" font-family="sans-serif" font-size="12" lengthAdjust="spacingAndGlyphs" textLength="73" x="67.5" y="28.1543">WithHeader</text><!--class Header--><rect fill="#FFFFFF" height="32" id="Header" style="stroke: #383838; stroke-width: 1.5;" width="78" x="52" y="100"/><ellipse cx="67" cy="116" fill="#9B9B9B" rx="11" ry="11" style="stroke: #383838; stroke-width: 1.0;"/><path d="M67.8438,122.75 L65.3906,122.75 L65.3906,112.5 L62.25,112.5 L62.25,110.3594 L70.9844,110.3594 L70.9844,112.5 L67.8438,112.5 L67.8438,122.75 Z "/><text fill="#000000" font-family="sans-serif" font-size="12" lengthAdjust="spacingAndGlyphs" textLength="46" x="81" y="120.1543">Header</text><!--link WithHeader to Header--><path d="M91,40.2673 C91,56.9175 91,83.3974 91,99.9582 " fill="none" id="WithHeader-Header" style="stroke: #383838; stroke-width: 1.0;"/><text fill="#000000" font-family="sans-serif" font-size="13" lengthAdjust="spacingAndGlyphs" textLength="85" x="-7.5469" y="59.9312">headerOwner</text><text fill="#000000" font-family="sans-serif" font-size="13" lengthAdjust="spacingAndGlyphs" textLength="45" x="38.2656" y="88.9554">header</text><!--
@startuml
skinparam shadowing false
skinparam monochrome true
skinparam class {
	BackgroundColor White
}
hide empty members
class WithHeader << (T,orchid) >> {
 }
class Header << (T,orchid) >> {
 }
WithHeader "headerOwner" - - "header" Header
@enduml

PlantUML version 1.2018.08(Sun Jun 24 14:31:00 CEST 2018)
(GPL source distribution)
Java Runtime: OpenJDK Runtime Environment
JVM: OpenJDK Server VM
Java Version: 1.8.0_171-8u171-b11-0ubuntu0.16.04.1-b11
Operating System: Linux
OS Version: 4.4.0-121-generic
Default Encoding: UTF-8
Language: en
Country: US
--></g></svg>