<?xml version="1.0" encoding="UTF-8" standalone="no"?><svg xmlns="http://www.w3.org/2000/svg" xmlns:xlink="http://www.w3.org/1999/xlink" contentScriptType="application/ecmascript" contentStyleType="text/css" height="143px" preserveAspectRatio="none" style="width:250px;height:143px;" version="1.1" viewBox="0 0 250 143" width="250px" zoomAndPan="magnify"><defs/><g><!--class WithImplicitVariables--><rect fill="#FFFFFF" height="32" id="WithImplicitVariables" style="stroke: #383838; stroke-width: 1.5;" width="160" x="79" y="8"/><ellipse cx="94" cy="24" fill="#9B9B9B" rx="11" ry="11" style="stroke: #383838; stroke-width: 1.0;"/><path d="M94.8438,30.75 L92.3906,30.75 L92.3906,20.5 L89.25,20.5 L89.25,18.3594 L97.9844,18.3594 L97.9844,20.5 L94.8438,20.5 L94.8438,30.75 Z "/><text fill="#000000" font-family="sans-serif" font-size="12" lengthAdjust="spacingAndGlyphs" textLength="128" x="108" y="28.1543">WithImplicitVariables</text><!--class ImplicitVariable--><rect fill="#FFFFFF" height="32" id="ImplicitVariable" style="stroke: #383838; stroke-width: 1.5;" width="126" x="96" y="100"/><ellipse cx="111" cy="116" fill="#9B9B9B" rx="11" ry="11" style="stroke: #383838; stroke-width: 1.0;"/><path d="M111.8438,122.75 L109.3906,122.75 L109.3906,112.5 L106.25,112.5 L106.25,110.3594 L114.9844,110.3594 L114.9844,112.5 L111.8438,112.5 L111.8438,122.75 Z "/><text fill="#000000" font-family="sans-serif" font-size="12" lengthAdjust="spacingAndGlyphs" textLength="94" x="125" y="120.1543">ImplicitVariable</text><!--link WithImplicitVariables to ImplicitVariable--><path d="M159,53.3401 C159,68.7851 159,87.2788 159,99.9582 " fill="none" id="WithImplicitVariables-ImplicitVariable" style="stroke: #383838; stroke-width: 1.0;"/><polygon fill="#FFFFFF" points="159,40.2673,155,46.2673,159,52.2673,163,46.2673,159,40.2673" style="stroke: #383838; stroke-width: 1.0;"/><text fill="#000000" font-family="sans-serif" font-size="13" lengthAdjust="spacingAndGlyphs" textLength="153" x="-18.3844" y="59.9312">parentBehaviouralEntity</text><ellipse cx="29.7344" cy="84.5213" fill="#000000" rx="2.5" ry="2.5" style="stroke: #000000; stroke-width: 0.0;"/><text fill="#000000" font-family="sans-serif" font-size="13" lengthAdjust="spacingAndGlyphs" textLength="104" x="35.2344" y="88.9554">implicitVariables</text><!--
@startuml
skinparam shadowing false
skinparam monochrome true
skinparam class {
	BackgroundColor White
}
hide empty members
class WithImplicitVariables << (T,orchid) >> {
 }
class ImplicitVariable << (T,orchid) >> {
 }
WithImplicitVariables "parentBehaviouralEntity" o- - "* implicitVariables" ImplicitVariable
@enduml

PlantUML version 1.2018.08(Sun Jun 24 14:31:00 CEST 2018)
(GPL source distribution)
Java Runtime: OpenJDK Runtime Environment
JVM: OpenJDK Server VM
Java Version: 1.8.0_171-8u171-b11-0ubuntu0.16.04.1-b11
Operating System: Linux
OS Version: 4.4.0-121-generic
Default Encoding: UTF-8
Language: en
Country: US
--></g></svg>