<?xml version="1.0" encoding="UTF-8" standalone="no"?><svg xmlns="http://www.w3.org/2000/svg" xmlns:xlink="http://www.w3.org/1999/xlink" contentScriptType="application/ecmascript" contentStyleType="text/css" height="235px" preserveAspectRatio="none" style="width:259px;height:235px;" version="1.1" viewBox="0 0 259 235" width="259px" zoomAndPan="magnify"><defs/><g><!--class NamedEntity--><rect fill="#FFFFFF" height="32" id="NamedEntity" style="stroke: #383838; stroke-width: 1.5;" width="111" x="83.5" y="8"/><ellipse cx="98.5" cy="24" fill="#C2C2C2" rx="11" ry="11" style="stroke: #383838; stroke-width: 1.0;"/><path d="M101.4688,29.6406 Q100.8906,29.9375 100.25,30.0859 Q99.6094,30.2344 98.9063,30.2344 Q96.4063,30.2344 95.0859,28.5859 Q93.7656,26.9375 93.7656,23.8125 Q93.7656,20.6875 95.0859,19.0313 Q96.4063,17.375 98.9063,17.375 Q99.6094,17.375 100.2578,17.5313 Q100.9063,17.6875 101.4688,17.9844 L101.4688,20.7031 Q100.8438,20.125 100.25,19.8516 Q99.6563,19.5781 99.0313,19.5781 Q97.6875,19.5781 97,20.6484 Q96.3125,21.7188 96.3125,23.8125 Q96.3125,25.9063 97,26.9766 Q97.6875,28.0469 99.0313,28.0469 Q99.6563,28.0469 100.25,27.7734 Q100.8438,27.5 101.4688,26.9219 L101.4688,29.6406 Z "/><text fill="#000000" font-family="sans-serif" font-size="12" lengthAdjust="spacingAndGlyphs" textLength="79" x="112.5" y="28.1543">NamedEntity</text><!--class ContainerEntity--><rect fill="#FFFFFF" height="32" id="ContainerEntity" style="stroke: #383838; stroke-width: 1.5;" width="128" x="6" y="100"/><ellipse cx="21" cy="116" fill="#C2C2C2" rx="11" ry="11" style="stroke: #383838; stroke-width: 1.0;"/><path d="M23.9688,121.6406 Q23.3906,121.9375 22.75,122.0859 Q22.1094,122.2344 21.4063,122.2344 Q18.9063,122.2344 17.5859,120.5859 Q16.2656,118.9375 16.2656,115.8125 Q16.2656,112.6875 17.5859,111.0313 Q18.9063,109.375 21.4063,109.375 Q22.1094,109.375 22.7578,109.5313 Q23.4063,109.6875 23.9688,109.9844 L23.9688,112.7031 Q23.3438,112.125 22.75,111.8516 Q22.1563,111.5781 21.5313,111.5781 Q20.1875,111.5781 19.5,112.6484 Q18.8125,113.7188 18.8125,115.8125 Q18.8125,117.9063 19.5,118.9766 Q20.1875,120.0469 21.5313,120.0469 Q22.1563,120.0469 22.75,119.7734 Q23.3438,119.5 23.9688,118.9219 L23.9688,121.6406 Z "/><text fill="#000000" font-family="sans-serif" font-size="12" lengthAdjust="spacingAndGlyphs" textLength="96" x="35" y="120.1543">ContainerEntity</text><!--class Class--><rect fill="#FFFFFF" height="32" id="Class" style="stroke: #383838; stroke-width: 1.5;" width="65" x="37.5" y="192"/><ellipse cx="52.5" cy="208" fill="#C2C2C2" rx="11" ry="11" style="stroke: #383838; stroke-width: 1.0;"/><path d="M55.4688,213.6406 Q54.8906,213.9375 54.25,214.0859 Q53.6094,214.2344 52.9063,214.2344 Q50.4063,214.2344 49.0859,212.5859 Q47.7656,210.9375 47.7656,207.8125 Q47.7656,204.6875 49.0859,203.0313 Q50.4063,201.375 52.9063,201.375 Q53.6094,201.375 54.2578,201.5313 Q54.9063,201.6875 55.4688,201.9844 L55.4688,204.7031 Q54.8438,204.125 54.25,203.8516 Q53.6563,203.5781 53.0313,203.5781 Q51.6875,203.5781 51,204.6484 Q50.3125,205.7188 50.3125,207.8125 Q50.3125,209.9063 51,210.9766 Q51.6875,212.0469 53.0313,212.0469 Q53.6563,212.0469 54.25,211.7734 Q54.8438,211.5 55.4688,210.9219 L55.4688,213.6406 Z "/><text fill="#000000" font-family="sans-serif" font-size="12" lengthAdjust="spacingAndGlyphs" textLength="33" x="66.5" y="212.1543">Class</text><!--class Method--><rect fill="#FFFFFF" height="32" id="Method" style="stroke: #383838; stroke-width: 1.5;" width="79" x="169.5" y="100"/><ellipse cx="184.5" cy="116" fill="#C2C2C2" rx="11" ry="11" style="stroke: #383838; stroke-width: 1.0;"/><path d="M187.4688,121.6406 Q186.8906,121.9375 186.25,122.0859 Q185.6094,122.2344 184.9063,122.2344 Q182.4063,122.2344 181.0859,120.5859 Q179.7656,118.9375 179.7656,115.8125 Q179.7656,112.6875 181.0859,111.0313 Q182.4063,109.375 184.9063,109.375 Q185.6094,109.375 186.2578,109.5313 Q186.9063,109.6875 187.4688,109.9844 L187.4688,112.7031 Q186.8438,112.125 186.25,111.8516 Q185.6563,111.5781 185.0313,111.5781 Q183.6875,111.5781 183,112.6484 Q182.3125,113.7188 182.3125,115.8125 Q182.3125,117.9063 183,118.9766 Q183.6875,120.0469 185.0313,120.0469 Q185.6563,120.0469 186.25,119.7734 Q186.8438,119.5 187.4688,118.9219 L187.4688,121.6406 Z "/><text fill="#000000" font-family="sans-serif" font-size="12" lengthAdjust="spacingAndGlyphs" textLength="47" x="198.5" y="120.1543">Method</text><!--link NamedEntity to ContainerEntity--><path d="M115.073,56.209 C103.712,71.028 90.6577,88.055 81.532,99.958 " fill="none" id="NamedEntity-ContainerEntity" style="stroke: #383838; stroke-width: 1.0;"/><polygon fill="none" points="109.571,51.88,127.295,40.267,120.682,60.398,109.571,51.88" style="stroke: #383838; stroke-width: 1.0;"/><!--link ContainerEntity to Class--><path d="M70,152.6147 C70,166.3102 70,181.2196 70,191.9582 " fill="none" id="ContainerEntity-Class" style="stroke: #383838; stroke-width: 1.0;"/><polygon fill="none" points="63.0001,152.2673,70,132.2673,77.0001,152.2672,63.0001,152.2673" style="stroke: #383838; stroke-width: 1.0;"/><!--link NamedEntity to Method--><path d="M163.274,56.209 C174.799,71.028 188.043,88.055 197.301,99.958 " fill="none" id="NamedEntity-Method" style="stroke: #383838; stroke-width: 1.0;"/><polygon fill="none" points="157.628,60.352,150.875,40.267,168.679,51.757,157.628,60.352" style="stroke: #383838; stroke-width: 1.0;"/><!--
@startuml
skinparam shadowing false
skinparam monochrome true
skinparam class {
	BackgroundColor White
}

hide empty members

class NamedEntity
class ContainerEntity
class Class
class Method

NamedEntity <|-down- ContainerEntity
ContainerEntity <|-down- Class
NamedEntity <|-down- Method


@enduml

PlantUML version 1.2018.08(Sun Jun 24 14:31:00 CEST 2018)
(GPL source distribution)
Java Runtime: OpenJDK Runtime Environment
JVM: OpenJDK Server VM
Java Version: 1.8.0_171-8u171-b11-0ubuntu0.16.04.1-b11
Operating System: Linux
OS Version: 4.4.0-121-generic
Default Encoding: UTF-8
Language: en
Country: US
--></g></svg>