<?xml version="1.0" encoding="UTF-8" standalone="no"?><svg xmlns="http://www.w3.org/2000/svg" xmlns:xlink="http://www.w3.org/1999/xlink" contentScriptType="application/ecmascript" contentStyleType="text/css" height="143px" preserveAspectRatio="none" style="width:465px;height:143px;" version="1.1" viewBox="0 0 465 143" width="465px" zoomAndPan="magnify"><defs/><g><!--class Invocation--><rect fill="#FFFFFF" height="32" id="Invocation" style="stroke: #383838; stroke-width: 1.5;" width="96" x="195" y="8"/><ellipse cx="210" cy="24" fill="#9B9B9B" rx="11" ry="11" style="stroke: #383838; stroke-width: 1.0;"/><path d="M210.8438,30.75 L208.3906,30.75 L208.3906,20.5 L205.25,20.5 L205.25,18.3594 L213.9844,18.3594 L213.9844,20.5 L210.8438,20.5 L210.8438,30.75 Z "/><text fill="#000000" font-family="sans-serif" font-size="12" lengthAdjust="spacingAndGlyphs" textLength="64" x="224" y="28.1543">Invocation</text><!--class InvocationsReceiver--><rect fill="#FFFFFF" height="32" id="InvocationsReceiver" style="stroke: #383838; stroke-width: 1.5;" width="156" x="6" y="100"/><ellipse cx="21" cy="116" fill="#9B9B9B" rx="11" ry="11" style="stroke: #383838; stroke-width: 1.0;"/><path d="M21.8438,122.75 L19.3906,122.75 L19.3906,112.5 L16.25,112.5 L16.25,110.3594 L24.9844,110.3594 L24.9844,112.5 L21.8438,112.5 L21.8438,122.75 Z "/><text fill="#000000" font-family="sans-serif" font-size="12" lengthAdjust="spacingAndGlyphs" textLength="124" x="35" y="120.1543">InvocationsReceiver</text><!--class Invocable--><rect fill="#FFFFFF" height="32" id="Invocable" style="stroke: #383838; stroke-width: 1.5;" width="91" x="197.5" y="100"/><ellipse cx="212.5" cy="116" fill="#9B9B9B" rx="11" ry="11" style="stroke: #383838; stroke-width: 1.0;"/><path d="M213.3438,122.75 L210.8906,122.75 L210.8906,112.5 L207.75,112.5 L207.75,110.3594 L216.4844,110.3594 L216.4844,112.5 L213.3438,112.5 L213.3438,122.75 Z "/><text fill="#000000" font-family="sans-serif" font-size="12" lengthAdjust="spacingAndGlyphs" textLength="59" x="226.5" y="120.1543">Invocable</text><!--class WithInvocations--><rect fill="#FFFFFF" height="32" id="WithInvocations" style="stroke: #383838; stroke-width: 1.5;" width="130" x="324" y="100"/><ellipse cx="339" cy="116" fill="#9B9B9B" rx="11" ry="11" style="stroke: #383838; stroke-width: 1.0;"/><path d="M339.8438,122.75 L337.3906,122.75 L337.3906,112.5 L334.25,112.5 L334.25,110.3594 L342.9844,110.3594 L342.9844,112.5 L339.8438,112.5 L339.8438,122.75 Z "/><text fill="#000000" font-family="sans-serif" font-size="12" lengthAdjust="spacingAndGlyphs" textLength="98" x="353" y="120.1543">WithInvocations</text><!--link Invocation to Invocable--><path d="M243,40.2673 C243,56.9175 243,83.3974 243,99.9582 " fill="none" id="Invocation-Invocable" style="stroke: #383838; stroke-width: 1.0;"/><ellipse cx="270.9719" cy="55.4971" fill="#000000" rx="2.5" ry="2.5" style="stroke: #000000; stroke-width: 0.0;"/><text fill="#000000" font-family="sans-serif" font-size="13" lengthAdjust="spacingAndGlyphs" textLength="130" x="276.4719" y="59.9312">incomingInvocations</text><ellipse cx="167.1238" cy="84.594" fill="#000000" rx="2.5" ry="2.5" style="stroke: #000000; stroke-width: 0.0;"/><text fill="#000000" font-family="sans-serif" font-size="13" lengthAdjust="spacingAndGlyphs" textLength="70" x="172.6238" y="89.0281">candidates</text><!--link Invocation to InvocationsReceiver--><path d="M216.387,40.064 C187.036,56.6775 140.085,83.2538 110.7,99.8869 " fill="none" id="Invocation-InvocationsReceiver" style="stroke: #383838; stroke-width: 1.0;"/><ellipse cx="52.2993" cy="54.9336" fill="#000000" rx="2.5" ry="2.5" style="stroke: #000000; stroke-width: 0.0;"/><text fill="#000000" font-family="sans-serif" font-size="13" lengthAdjust="spacingAndGlyphs" textLength="129" x="57.7993" y="59.3677">receivingInvocations</text><text fill="#000000" font-family="sans-serif" font-size="13" lengthAdjust="spacingAndGlyphs" textLength="51" x="60.1122" y="88.8596">receiver</text><!--link Invocation to WithInvocations--><path d="M267.437,40.064 C294.388,56.6775 337.501,83.2538 364.483,99.8869 " fill="none" id="Invocation-WithInvocations" style="stroke: #383838; stroke-width: 1.0;"/><ellipse cx="304.0536" cy="35.5556" fill="#000000" rx="2.5" ry="2.5" style="stroke: #000000; stroke-width: 0.0;"/><text fill="#000000" font-family="sans-serif" font-size="13" lengthAdjust="spacingAndGlyphs" textLength="128" x="309.5536" y="39.9897">outgoingInvocations</text><text fill="#000000" font-family="sans-serif" font-size="13" lengthAdjust="spacingAndGlyphs" textLength="44" x="304.4928" y="88.8596">sender</text><!--
@startuml
skinparam shadowing false
skinparam monochrome true
skinparam class {
	BackgroundColor White
}
hide empty members
class Invocation << (T,orchid) >> {
 }
class InvocationsReceiver << (T,orchid) >> {
 }
class Invocable << (T,orchid) >> {
 }
class WithInvocations << (T,orchid) >> {
 }
Invocation "* incomingInvocations" - - "* candidates" Invocable
Invocation "* receivingInvocations" - - "receiver" InvocationsReceiver
Invocation "* outgoingInvocations" - - "sender" WithInvocations
@enduml

PlantUML version 1.2018.08(Sun Jun 24 14:31:00 CEST 2018)
(GPL source distribution)
Java Runtime: OpenJDK Runtime Environment
JVM: OpenJDK Server VM
Java Version: 1.8.0_171-8u171-b11-0ubuntu0.16.04.1-b11
Operating System: Linux
OS Version: 4.4.0-121-generic
Default Encoding: UTF-8
Language: en
Country: US
--></g></svg>