<?xml version="1.0" encoding="UTF-8" standalone="no"?><svg xmlns="http://www.w3.org/2000/svg" xmlns:xlink="http://www.w3.org/1999/xlink" contentScriptType="application/ecmascript" contentStyleType="text/css" height="269px" preserveAspectRatio="none" style="width:169px;height:269px;" version="1.1" viewBox="0 0 169 269" width="169px" zoomAndPan="magnify"><defs/><g><!--class WithMethods--><rect fill="#FFFFFF" height="52.8047" id="WithMethods" style="stroke: #383838; stroke-width: 1.5;" width="139" x="19.5" y="8"/><ellipse cx="46.2" cy="24" fill="#9B9B9B" rx="11" ry="11" style="stroke: #383838; stroke-width: 1.0;"/><path d="M47.0438,30.75 L44.5906,30.75 L44.5906,20.5 L41.45,20.5 L41.45,18.3594 L50.1844,18.3594 L50.1844,20.5 L47.0438,20.5 L47.0438,30.75 Z "/><text fill="#000000" font-family="sans-serif" font-size="12" lengthAdjust="spacingAndGlyphs" textLength="81" x="62.8" y="28.1543">WithMethods</text><line style="stroke: #383838; stroke-width: 1.5;" x1="20.5" x2="157.5" y1="40" y2="40"/><ellipse cx="30.5" cy="51.9023" fill="#A6A6A6" rx="3" ry="3" style="stroke: #545454; stroke-width: 1.0;"/><text fill="#000000" font-family="sans-serif" font-size="11" lengthAdjust="spacingAndGlyphs" textLength="113" x="39.5" y="54.2104">numberOfMethods()</text><!--class Method--><rect fill="#FFFFFF" height="137.6328" id="Method" style="stroke: #383838; stroke-width: 1.5;" width="114" x="32" y="121"/><ellipse cx="62.75" cy="137" fill="#9B9B9B" rx="11" ry="11" style="stroke: #383838; stroke-width: 1.0;"/><path d="M63.5938,143.75 L61.1406,143.75 L61.1406,133.5 L58,133.5 L58,131.3594 L66.7344,131.3594 L66.7344,133.5 L63.5938,133.5 L63.5938,143.75 Z "/><text fill="#000000" font-family="sans-serif" font-size="12" lengthAdjust="spacingAndGlyphs" textLength="47" x="80.25" y="141.1543">Method</text><line style="stroke: #383838; stroke-width: 1.5;" x1="33" x2="145" y1="153" y2="153"/><ellipse cx="43" cy="164.9023" fill="none" rx="3" ry="3" style="stroke: #545454; stroke-width: 1.0;"/><text fill="#000000" font-family="sans-serif" font-size="11" lengthAdjust="spacingAndGlyphs" textLength="88" x="52" y="167.2104">hasClassScope</text><ellipse cx="43" cy="177.707" fill="none" rx="3" ry="3" style="stroke: #545454; stroke-width: 1.0;"/><text fill="#000000" font-family="sans-serif" font-size="11" lengthAdjust="spacingAndGlyphs" textLength="49" x="52" y="180.0151">category</text><ellipse cx="43" cy="190.5117" fill="none" rx="3" ry="3" style="stroke: #545454; stroke-width: 1.0;"/><text fill="#000000" font-family="sans-serif" font-size="11" lengthAdjust="spacingAndGlyphs" textLength="23" x="52" y="192.8198">kind</text><ellipse cx="43" cy="203.3164" fill="none" rx="3" ry="3" style="stroke: #545454; stroke-width: 1.0;"/><text fill="#000000" font-family="sans-serif" font-size="11" lengthAdjust="spacingAndGlyphs" textLength="62" x="52" y="205.6245">timeStamp</text><line style="stroke: #383838; stroke-width: 1.5;" x1="33" x2="145" y1="212.2188" y2="212.2188"/><ellipse cx="43" cy="224.1211" fill="#A6A6A6" rx="3" ry="3" style="stroke: #545454; stroke-width: 1.0;"/><text fill="#000000" font-family="sans-serif" font-size="11" lengthAdjust="spacingAndGlyphs" textLength="53" x="52" y="226.4292">isSetter()</text><ellipse cx="43" cy="236.9258" fill="#A6A6A6" rx="3" ry="3" style="stroke: #545454; stroke-width: 1.0;"/><text fill="#000000" font-family="sans-serif" font-size="11" lengthAdjust="spacingAndGlyphs" textLength="69" x="52" y="239.2339">isConstant()</text><ellipse cx="43" cy="249.7305" fill="#A6A6A6" rx="3" ry="3" style="stroke: #545454; stroke-width: 1.0;"/><text fill="#000000" font-family="sans-serif" font-size="11" lengthAdjust="spacingAndGlyphs" textLength="85" x="52" y="252.0386">isConstructor()</text><!--link WithMethods to Method--><path d="M89,74.445 C89,88.559 89,104.945 89,120.835 " fill="none" id="WithMethods-Method" style="stroke: #383838; stroke-width: 1.0;"/><polygon fill="#FFFFFF" points="89,61.192,85,67.192,89,73.192,93,67.192,89,61.192" style="stroke: #383838; stroke-width: 1.0;"/><text fill="#000000" font-family="sans-serif" font-size="13" lengthAdjust="spacingAndGlyphs" textLength="72" x="9.125" y="80.7743">parentType</text><ellipse cx="22.9938" cy="105.5875" fill="#000000" rx="2.5" ry="2.5" style="stroke: #000000; stroke-width: 0.0;"/><text fill="#000000" font-family="sans-serif" font-size="13" lengthAdjust="spacingAndGlyphs" textLength="57" x="28.4938" y="110.0216">methods</text><!--
@startuml
skinparam shadowing false
skinparam monochrome true
skinparam class {
	BackgroundColor White
}
hide empty members
class WithMethods << (T,orchid) >> {
	+numberOfMethods()
 }
class Method << (T,orchid) >> {
	+isSetter()
	+hasClassScope
	+isConstant()
	+category
	+kind
	+isConstructor()
	+timeStamp
 }
WithMethods "parentType" o- - "* methods" Method
@enduml

PlantUML version 1.2018.08(Sun Jun 24 14:31:00 CEST 2018)
(GPL source distribution)
Java Runtime: OpenJDK Runtime Environment
JVM: OpenJDK Server VM
Java Version: 1.8.0_171-8u171-b11-0ubuntu0.16.04.1-b11
Operating System: Linux
OS Version: 4.4.0-121-generic
Default Encoding: UTF-8
Language: en
Country: US
--></g></svg>