<?xml version="1.0" encoding="UTF-8" standalone="no"?><svg xmlns="http://www.w3.org/2000/svg" xmlns:xlink="http://www.w3.org/1999/xlink" contentScriptType="application/ecmascript" contentStyleType="text/css" height="143px" preserveAspectRatio="none" style="width:191px;height:143px;" version="1.1" viewBox="0 0 191 143" width="191px" zoomAndPan="magnify"><defs/><g><!--class DefinedInModule--><rect fill="#FFFFFF" height="32" id="DefinedInModule" style="stroke: #383838; stroke-width: 1.5;" width="136" x="44" y="8"/><ellipse cx="59" cy="24" fill="#9B9B9B" rx="11" ry="11" style="stroke: #383838; stroke-width: 1.0;"/><path d="M59.8438,30.75 L57.3906,30.75 L57.3906,20.5 L54.25,20.5 L54.25,18.3594 L62.9844,18.3594 L62.9844,20.5 L59.8438,20.5 L59.8438,30.75 Z "/><text fill="#000000" font-family="sans-serif" font-size="12" lengthAdjust="spacingAndGlyphs" textLength="104" x="73" y="28.1543">DefinedInModule</text><!--class Module--><rect fill="#FFFFFF" height="32" id="Module" style="stroke: #383838; stroke-width: 1.5;" width="77" x="73.5" y="100"/><ellipse cx="88.5" cy="116" fill="#9B9B9B" rx="11" ry="11" style="stroke: #383838; stroke-width: 1.0;"/><path d="M89.3438,122.75 L86.8906,122.75 L86.8906,112.5 L83.75,112.5 L83.75,110.3594 L92.4844,110.3594 L92.4844,112.5 L89.3438,112.5 L89.3438,122.75 Z "/><text fill="#000000" font-family="sans-serif" font-size="12" lengthAdjust="spacingAndGlyphs" textLength="45" x="102.5" y="120.1543">Module</text><!--link DefinedInModule to Module--><path d="M112,40.2673 C112,56.9175 112,83.3974 112,99.9582 " fill="none" id="DefinedInModule-Module" style="stroke: #383838; stroke-width: 1.0;"/><ellipse cx="-5.3938" cy="55.4971" fill="#000000" rx="2.5" ry="2.5" style="stroke: #000000; stroke-width: 0.0;"/><text fill="#000000" font-family="sans-serif" font-size="13" lengthAdjust="spacingAndGlyphs" textLength="95" x="0.1062" y="59.9312">moduleEntities</text><text fill="#000000" font-family="sans-serif" font-size="13" lengthAdjust="spacingAndGlyphs" textLength="88" x="8.875" y="88.9554">parentModule</text><!--
@startuml
skinparam shadowing false
skinparam monochrome true
skinparam class {
	BackgroundColor White
}
hide empty members
class DefinedInModule << (T,orchid) >> {
 }
class Module << (T,orchid) >> {
 }
DefinedInModule "* moduleEntities" - - "parentModule" Module
@enduml

PlantUML version 1.2018.08(Sun Jun 24 14:31:00 CEST 2018)
(GPL source distribution)
Java Runtime: OpenJDK Runtime Environment
JVM: OpenJDK Server VM
Java Version: 1.8.0_171-8u171-b11-0ubuntu0.16.04.1-b11
Operating System: Linux
OS Version: 4.4.0-121-generic
Default Encoding: UTF-8
Language: en
Country: US
--></g></svg>