<?xml version="1.0" encoding="UTF-8" standalone="no"?><svg xmlns="http://www.w3.org/2000/svg" xmlns:xlink="http://www.w3.org/1999/xlink" contentScriptType="application/ecmascript" contentStyleType="text/css" height="235px" preserveAspectRatio="none" style="width:188px;height:235px;" version="1.1" viewBox="0 0 188 235" width="188px" zoomAndPan="magnify"><defs/><g><!--class Packageable--><rect fill="#FFFFFF" height="32" id="Packageable" style="stroke: #383838; stroke-width: 1.5;" width="113" x="60.5" y="8"/><ellipse cx="75.5" cy="24" fill="#9B9B9B" rx="11" ry="11" style="stroke: #383838; stroke-width: 1.0;"/><path d="M76.3438,30.75 L73.8906,30.75 L73.8906,20.5 L70.75,20.5 L70.75,18.3594 L79.4844,18.3594 L79.4844,20.5 L76.3438,20.5 L76.3438,30.75 Z "/><text fill="#000000" font-family="sans-serif" font-size="12" lengthAdjust="spacingAndGlyphs" textLength="81" x="89.5" y="28.1543">Packageable</text><!--class Package--><rect fill="#FFFFFF" height="32" id="Package" style="stroke: #383838; stroke-width: 1.5;" width="86" x="74" y="100"/><ellipse cx="89" cy="116" fill="#9B9B9B" rx="11" ry="11" style="stroke: #383838; stroke-width: 1.0;"/><path d="M89.8438,122.75 L87.3906,122.75 L87.3906,112.5 L84.25,112.5 L84.25,110.3594 L92.9844,110.3594 L92.9844,112.5 L89.8438,112.5 L89.8438,122.75 Z "/><text fill="#000000" font-family="sans-serif" font-size="12" lengthAdjust="spacingAndGlyphs" textLength="54" x="103" y="120.1543">Package</text><!--class WithPackages--><rect fill="#FFFFFF" height="32" id="WithPackages" style="stroke: #383838; stroke-width: 1.5;" width="120" x="57" y="192"/><ellipse cx="72" cy="208" fill="#9B9B9B" rx="11" ry="11" style="stroke: #383838; stroke-width: 1.0;"/><path d="M72.8438,214.75 L70.3906,214.75 L70.3906,204.5 L67.25,204.5 L67.25,202.3594 L75.9844,202.3594 L75.9844,204.5 L72.8438,204.5 L72.8438,214.75 Z "/><text fill="#000000" font-family="sans-serif" font-size="12" lengthAdjust="spacingAndGlyphs" textLength="88" x="86" y="212.1543">WithPackages</text><!--link Packageable to Package--><path d="M117,40.267 C117,53.015 117,71.525 117,86.934 " fill="none" id="Packageable-Package" style="stroke: #383838; stroke-width: 1.0;"/><polygon fill="#FFFFFF" points="117,99.958,121,93.958,117,87.958,113,93.958,117,99.958" style="stroke: #383838; stroke-width: 1.0;"/><ellipse cx="21.6344" cy="55.4967" fill="#000000" rx="2.5" ry="2.5" style="stroke: #000000; stroke-width: 0.0;"/><text fill="#000000" font-family="sans-serif" font-size="13" lengthAdjust="spacingAndGlyphs" textLength="76" x="27.1344" y="59.9308">childEntities</text><text fill="#000000" font-family="sans-serif" font-size="13" lengthAdjust="spacingAndGlyphs" textLength="96" x="4.5" y="88.9552">parentPackage</text><!--link Package to WithPackages--><path d="M117,132.2673 C117,148.9175 117,175.3974 117,191.9582 " fill="none" id="Package-WithPackages" style="stroke: #383838; stroke-width: 1.0;"/><ellipse cx="39.025" cy="147.4971" fill="#000000" rx="2.5" ry="2.5" style="stroke: #000000; stroke-width: 0.0;"/><text fill="#000000" font-family="sans-serif" font-size="13" lengthAdjust="spacingAndGlyphs" textLength="61" x="44.525" y="151.9312">packages</text><text fill="#000000" font-family="sans-serif" font-size="13" lengthAdjust="spacingAndGlyphs" textLength="94" x="6.8438" y="180.9554">packageOwner</text><!--
@startuml
skinparam shadowing false
skinparam monochrome true
skinparam class {
	BackgroundColor White
}
hide empty members
class Packageable << (T,orchid) >> {
 }
class Package << (T,orchid) >> {
 }
class WithPackages << (T,orchid) >> {
 }
Packageable "* childEntities" - -o "parentPackage" Package
Package "* packages" - - "packageOwner" WithPackages
@enduml

PlantUML version 1.2018.08(Sun Jun 24 14:31:00 CEST 2018)
(GPL source distribution)
Java Runtime: OpenJDK Runtime Environment
JVM: OpenJDK Server VM
Java Version: 1.8.0_171-8u171-b11-0ubuntu0.16.04.1-b11
Operating System: Linux
OS Version: 4.4.0-121-generic
Default Encoding: UTF-8
Language: en
Country: US
--></g></svg>