<?xml version="1.0" encoding="UTF-8" standalone="no"?><svg xmlns="http://www.w3.org/2000/svg" xmlns:xlink="http://www.w3.org/1999/xlink" contentScriptType="application/ecmascript" contentStyleType="text/css" height="163px" preserveAspectRatio="none" style="width:264px;height:163px;" version="1.1" viewBox="0 0 264 163" width="264px" zoomAndPan="magnify"><defs/><g><!--class Parameter--><rect fill="#FFFFFF" height="32" id="Parameter" style="stroke: #383838; stroke-width: 1.5;" width="98" x="125" y="8"/><ellipse cx="140" cy="24" fill="#9B9B9B" rx="11" ry="11" style="stroke: #383838; stroke-width: 1.0;"/><path d="M140.8438,30.75 L138.3906,30.75 L138.3906,20.5 L135.25,20.5 L135.25,18.3594 L143.9844,18.3594 L143.9844,20.5 L140.8438,20.5 L140.8438,30.75 Z "/><text fill="#000000" font-family="sans-serif" font-size="12" lengthAdjust="spacingAndGlyphs" textLength="66" x="154" y="28.1543">Parameter</text><!--class WithParameters--><rect fill="#FFFFFF" height="52.8047" id="WithParameters" style="stroke: #383838; stroke-width: 1.5;" width="158" x="95" y="100"/><ellipse cx="121.7" cy="116" fill="#9B9B9B" rx="11" ry="11" style="stroke: #383838; stroke-width: 1.0;"/><path d="M122.5438,122.75 L120.0906,122.75 L120.0906,112.5 L116.95,112.5 L116.95,110.3594 L125.6844,110.3594 L125.6844,112.5 L122.5438,112.5 L122.5438,122.75 Z "/><text fill="#000000" font-family="sans-serif" font-size="12" lengthAdjust="spacingAndGlyphs" textLength="100" x="138.3" y="120.1543">WithParameters</text><line style="stroke: #383838; stroke-width: 1.5;" x1="96" x2="252" y1="132" y2="132"/><ellipse cx="106" cy="143.9023" fill="#A6A6A6" rx="3" ry="3" style="stroke: #545454; stroke-width: 1.0;"/><text fill="#000000" font-family="sans-serif" font-size="11" lengthAdjust="spacingAndGlyphs" textLength="132" x="115" y="146.2104">numberOfParameters()</text><!--link Parameter to WithParameters--><path d="M174,40.264 C174,52.619 174,70.5757 174,86.8249 " fill="none" id="Parameter-WithParameters" style="stroke: #383838; stroke-width: 1.0;"/><polygon fill="#FFFFFF" points="174,99.9121,178,93.9121,174,87.9121,170,93.9121,174,99.9121" style="stroke: #383838; stroke-width: 1.0;"/><ellipse cx="79.7937" cy="55.4928" fill="#000000" rx="2.5" ry="2.5" style="stroke: #000000; stroke-width: 0.0;"/><text fill="#000000" font-family="sans-serif" font-size="13" lengthAdjust="spacingAndGlyphs" textLength="75" x="85.2937" y="59.9268">parameters</text><text fill="#000000" font-family="sans-serif" font-size="13" lengthAdjust="spacingAndGlyphs" textLength="153" x="3.3094" y="89.1341">parentBehaviouralEntity</text><!--
@startuml
skinparam shadowing false
skinparam monochrome true
skinparam class {
	BackgroundColor White
}
hide empty members
class Parameter << (T,orchid) >> {
 }
class WithParameters << (T,orchid) >> {
	+numberOfParameters()
 }
Parameter "* parameters" - -o "parentBehaviouralEntity" WithParameters
@enduml

PlantUML version 1.2018.08(Sun Jun 24 14:31:00 CEST 2018)
(GPL source distribution)
Java Runtime: OpenJDK Runtime Environment
JVM: OpenJDK Server VM
Java Version: 1.8.0_171-8u171-b11-0ubuntu0.16.04.1-b11
Operating System: Linux
OS Version: 4.4.0-121-generic
Default Encoding: UTF-8
Language: en
Country: US
--></g></svg>