<?xml version="1.0" encoding="UTF-8" standalone="no"?><svg xmlns="http://www.w3.org/2000/svg" xmlns:xlink="http://www.w3.org/1999/xlink" contentScriptType="application/ecmascript" contentStyleType="text/css" height="143px" preserveAspectRatio="none" style="width:266px;height:143px;" version="1.1" viewBox="0 0 266 143" width="266px" zoomAndPan="magnify"><defs/><g><!--class WithParameterizedTypes--><rect fill="#FFFFFF" height="32" id="WithParameterizedTypes" style="stroke: #383838; stroke-width: 1.5;" width="185" x="70.5" y="8"/><ellipse cx="85.5" cy="24" fill="#9B9B9B" rx="11" ry="11" style="stroke: #383838; stroke-width: 1.0;"/><path d="M86.3438,30.75 L83.8906,30.75 L83.8906,20.5 L80.75,20.5 L80.75,18.3594 L89.4844,18.3594 L89.4844,20.5 L86.3438,20.5 L86.3438,30.75 Z "/><text fill="#000000" font-family="sans-serif" font-size="12" lengthAdjust="spacingAndGlyphs" textLength="153" x="99.5" y="28.1543">WithParameterizedTypes</text><!--class ParameterizedType--><rect fill="#FFFFFF" height="32" id="ParameterizedType" style="stroke: #383838; stroke-width: 1.5;" width="151" x="87.5" y="100"/><ellipse cx="102.5" cy="116" fill="#9B9B9B" rx="11" ry="11" style="stroke: #383838; stroke-width: 1.0;"/><path d="M103.3438,122.75 L100.8906,122.75 L100.8906,112.5 L97.75,112.5 L97.75,110.3594 L106.4844,110.3594 L106.4844,112.5 L103.3438,112.5 L103.3438,122.75 Z "/><text fill="#000000" font-family="sans-serif" font-size="12" lengthAdjust="spacingAndGlyphs" textLength="119" x="116.5" y="120.1543">ParameterizedType</text><!--link WithParameterizedTypes to ParameterizedType--><path d="M163,40.2673 C163,56.9175 163,83.3974 163,99.9582 " fill="none" id="WithParameterizedTypes-ParameterizedType" style="stroke: #383838; stroke-width: 1.0;"/><text fill="#000000" font-family="sans-serif" font-size="13" lengthAdjust="spacingAndGlyphs" textLength="139" x="1.8469" y="59.9312">parameterizableClass</text><ellipse cx="2.0938" cy="84.5213" fill="#000000" rx="2.5" ry="2.5" style="stroke: #000000; stroke-width: 0.0;"/><text fill="#000000" font-family="sans-serif" font-size="13" lengthAdjust="spacingAndGlyphs" textLength="131" x="7.5938" y="88.9554">parameterizedTypes</text><!--
@startuml
skinparam shadowing false
skinparam monochrome true
skinparam class {
	BackgroundColor White
}
hide empty members
class WithParameterizedTypes << (T,orchid) >> {
 }
class ParameterizedType << (T,orchid) >> {
 }
WithParameterizedTypes "parameterizableClass" - - "* parameterizedTypes" ParameterizedType
@enduml

PlantUML version 1.2018.08(Sun Jun 24 14:31:00 CEST 2018)
(GPL source distribution)
Java Runtime: OpenJDK Runtime Environment
JVM: OpenJDK Server VM
Java Version: 1.8.0_171-8u171-b11-0ubuntu0.16.04.1-b11
Operating System: Linux
OS Version: 4.4.0-121-generic
Default Encoding: UTF-8
Language: en
Country: US
--></g></svg>