<?xml version="1.0" encoding="UTF-8" standalone="no"?><svg xmlns="http://www.w3.org/2000/svg" xmlns:xlink="http://www.w3.org/1999/xlink" contentScriptType="application/ecmascript" contentStyleType="text/css" height="61px" preserveAspectRatio="none" style="width:229px;height:61px;" version="1.1" viewBox="0 0 229 61" width="229px" zoomAndPan="magnify"><defs/><g><!--class ScopingEntity--><rect fill="#FFFFFF" height="32" id="ScopingEntity" style="stroke: #383838; stroke-width: 1.5;" width="117" x="6" y="13.0004"/><ellipse cx="21" cy="29.0004" fill="#9B9B9B" rx="11" ry="11" style="stroke: #383838; stroke-width: 1.0;"/><path d="M21.8438,35.7504 L19.3906,35.7504 L19.3906,25.5004 L16.25,25.5004 L16.25,23.3598 L24.9844,23.3598 L24.9844,25.5004 L21.8438,25.5004 L21.8438,35.7504 Z "/><text fill="#000000" font-family="sans-serif" font-size="12" lengthAdjust="spacingAndGlyphs" textLength="85" x="35" y="33.1547">ScopingEntity</text><!--link ScopingEntity to ScopingEntity--><path d="M136.538,23.3697 C149.19,24.1159 158,25.9928 158,29.0004 C158,32.9691 142.659,34.969 123.393,35 " fill="none" id="ScopingEntity-ScopingEntity" style="stroke: #383838; stroke-width: 1.0;"/><polygon fill="#FFFFFF" points="123.393,23.0007,129.2786,27.1673,135.3883,23.337,129.5027,19.1704,123.393,23.0007" style="stroke: #383838; stroke-width: 1.0;"/><text fill="#000000" font-family="sans-serif" font-size="13" lengthAdjust="spacingAndGlyphs" textLength="82" x="131.0411" y="19.0391">parentScope</text><ellipse cx="136.4125" cy="43.6291" fill="#000000" rx="2.5" ry="2.5" style="stroke: #000000; stroke-width: 0.0;"/><text fill="#000000" font-family="sans-serif" font-size="13" lengthAdjust="spacingAndGlyphs" textLength="76" x="141.9125" y="48.0631">childScopes</text><!--
@startuml
skinparam shadowing false
skinparam monochrome true
skinparam class {
	BackgroundColor White
}
hide empty members
class ScopingEntity << (T,orchid) >> {
 }
ScopingEntity "parentScope" o- - "* childScopes" ScopingEntity
@enduml

PlantUML version 1.2018.08(Sun Jun 24 14:31:00 CEST 2018)
(GPL source distribution)
Java Runtime: OpenJDK Runtime Environment
JVM: OpenJDK Server VM
Java Version: 1.8.0_171-8u171-b11-0ubuntu0.16.04.1-b11
Operating System: Linux
OS Version: 4.4.0-121-generic
Default Encoding: UTF-8
Language: en
Country: US
--></g></svg>