<?xml version="1.0" encoding="UTF-8" standalone="no"?><svg xmlns="http://www.w3.org/2000/svg" xmlns:xlink="http://www.w3.org/1999/xlink" contentScriptType="application/ecmascript" contentStyleType="text/css" height="164px" preserveAspectRatio="none" style="width:338px;height:164px;" version="1.1" viewBox="0 0 338 164" width="338px" zoomAndPan="magnify"><defs/><g><!--class WithSourceAnchor--><rect fill="#FFFFFF" height="52.8047" id="WithSourceAnchor" style="stroke: #383838; stroke-width: 1.5;" width="321" x="6" y="8"/><ellipse cx="104.75" cy="24" fill="#9B9B9B" rx="11" ry="11" style="stroke: #383838; stroke-width: 1.0;"/><path d="M105.5938,30.75 L103.1406,30.75 L103.1406,20.5 L100,20.5 L100,18.3594 L108.7344,18.3594 L108.7344,20.5 L105.5938,20.5 L105.5938,30.75 Z "/><text fill="#000000" font-family="sans-serif" font-size="12" lengthAdjust="spacingAndGlyphs" textLength="115" x="125.25" y="28.1543">WithSourceAnchor</text><line style="stroke: #383838; stroke-width: 1.5;" x1="7" x2="326" y1="40" y2="40"/><ellipse cx="17" cy="51.9023" fill="#A6A6A6" rx="3" ry="3" style="stroke: #545454; stroke-width: 1.0;"/><text fill="#000000" font-family="sans-serif" font-size="11" lengthAdjust="spacingAndGlyphs" textLength="295" x="26" y="54.2104">numberOfLinesOfCodeWithMoreThanOneCharacter()</text><!--class SourceAnchor--><rect fill="#FFFFFF" height="32" id="SourceAnchor" style="stroke: #383838; stroke-width: 1.5;" width="120" x="106.5" y="121"/><ellipse cx="121.5" cy="137" fill="#9B9B9B" rx="11" ry="11" style="stroke: #383838; stroke-width: 1.0;"/><path d="M122.3438,143.75 L119.8906,143.75 L119.8906,133.5 L116.75,133.5 L116.75,131.3594 L125.4844,131.3594 L125.4844,133.5 L122.3438,133.5 L122.3438,143.75 Z "/><text fill="#000000" font-family="sans-serif" font-size="12" lengthAdjust="spacingAndGlyphs" textLength="88" x="135.5" y="141.1543">SourceAnchor</text><!--link WithSourceAnchor to SourceAnchor--><path d="M166.5,74.2066 C166.5,90.4528 166.5,108.4007 166.5,120.7482 " fill="none" id="WithSourceAnchor-SourceAnchor" style="stroke: #383838; stroke-width: 1.0;"/><polygon fill="#FFFFFF" points="166.5,61.1204,162.5,67.1204,166.5,73.1204,170.5,67.1204,166.5,61.1204" style="stroke: #383838; stroke-width: 1.0;"/><text fill="#000000" font-family="sans-serif" font-size="13" lengthAdjust="spacingAndGlyphs" textLength="53" x="107.7031" y="80.687">element</text><text fill="#000000" font-family="sans-serif" font-size="13" lengthAdjust="spacingAndGlyphs" textLength="88" x="63.925" y="109.9693">sourceAnchor</text><!--
@startuml
skinparam shadowing false
skinparam monochrome true
skinparam class {
	BackgroundColor White
}
hide empty members
class WithSourceAnchor << (T,orchid) >> {
	+numberOfLinesOfCodeWithMoreThanOneCharacter()
 }
class SourceAnchor << (T,orchid) >> {
 }
WithSourceAnchor "element" o- - "sourceAnchor" SourceAnchor
@enduml

PlantUML version 1.2018.08(Sun Jun 24 14:31:00 CEST 2018)
(GPL source distribution)
Java Runtime: OpenJDK Runtime Environment
JVM: OpenJDK Server VM
Java Version: 1.8.0_171-8u171-b11-0ubuntu0.16.04.1-b11
Operating System: Linux
OS Version: 4.4.0-121-generic
Default Encoding: UTF-8
Language: en
Country: US
--></g></svg>