<?xml version="1.0" encoding="UTF-8" standalone="no"?><svg xmlns="http://www.w3.org/2000/svg" xmlns:xlink="http://www.w3.org/1999/xlink" contentScriptType="application/ecmascript" contentStyleType="text/css" height="143px" preserveAspectRatio="none" style="width:262px;height:143px;" version="1.1" viewBox="0 0 262 143" width="262px" zoomAndPan="magnify"><defs/><g><!--class SourceLanguage--><rect fill="#FFFFFF" height="32" id="SourceLanguage" style="stroke: #383838; stroke-width: 1.5;" width="138" x="100" y="8"/><ellipse cx="115" cy="24" fill="#9B9B9B" rx="11" ry="11" style="stroke: #383838; stroke-width: 1.0;"/><path d="M115.8438,30.75 L113.3906,30.75 L113.3906,20.5 L110.25,20.5 L110.25,18.3594 L118.9844,18.3594 L118.9844,20.5 L115.8438,20.5 L115.8438,30.75 Z "/><text fill="#000000" font-family="sans-serif" font-size="12" lengthAdjust="spacingAndGlyphs" textLength="106" x="129" y="28.1543">SourceLanguage</text><!--class WithSourceLanguage--><rect fill="#FFFFFF" height="32" id="WithSourceLanguage" style="stroke: #383838; stroke-width: 1.5;" width="165" x="86.5" y="100"/><ellipse cx="101.5" cy="116" fill="#9B9B9B" rx="11" ry="11" style="stroke: #383838; stroke-width: 1.0;"/><path d="M102.3438,122.75 L99.8906,122.75 L99.8906,112.5 L96.75,112.5 L96.75,110.3594 L105.4844,110.3594 L105.4844,112.5 L102.3438,112.5 L102.3438,122.75 Z "/><text fill="#000000" font-family="sans-serif" font-size="12" lengthAdjust="spacingAndGlyphs" textLength="133" x="115.5" y="120.1543">WithSourceLanguage</text><!--link SourceLanguage to WithSourceLanguage--><path d="M169,40.2673 C169,56.9175 169,83.3974 169,99.9582 " fill="none" id="SourceLanguage-WithSourceLanguage" style="stroke: #383838; stroke-width: 1.0;"/><text fill="#000000" font-family="sans-serif" font-size="13" lengthAdjust="spacingAndGlyphs" textLength="163" x="-19.9781" y="59.9312">declaredSourceLanguage</text><ellipse cx="46.7656" cy="84.5213" fill="#000000" rx="2.5" ry="2.5" style="stroke: #000000; stroke-width: 0.0;"/><text fill="#000000" font-family="sans-serif" font-size="13" lengthAdjust="spacingAndGlyphs" textLength="98" x="52.2656" y="88.9554">sourcedEntities</text><!--
@startuml
skinparam shadowing false
skinparam monochrome true
skinparam class {
	BackgroundColor White
}
hide empty members
class SourceLanguage << (T,orchid) >> {
 }
class WithSourceLanguage << (T,orchid) >> {
 }
SourceLanguage "declaredSourceLanguage" - - "* sourcedEntities" WithSourceLanguage
@enduml

PlantUML version 1.2018.08(Sun Jun 24 14:31:00 CEST 2018)
(GPL source distribution)
Java Runtime: OpenJDK Runtime Environment
JVM: OpenJDK Server VM
Java Version: 1.8.0_171-8u171-b11-0ubuntu0.16.04.1-b11
Operating System: Linux
OS Version: 4.4.0-121-generic
Default Encoding: UTF-8
Language: en
Country: US
--></g></svg>