<?xml version="1.0" encoding="UTF-8" standalone="no"?><svg xmlns="http://www.w3.org/2000/svg" xmlns:xlink="http://www.w3.org/1999/xlink" contentScriptType="application/ecmascript" contentStyleType="text/css" height="143px" preserveAspectRatio="none" style="width:107px;height:143px;" version="1.1" viewBox="0 0 107 143" width="107px" zoomAndPan="magnify"><defs/><g><!--class Super--><rect fill="#FFFFFF" height="32" id="Super" style="stroke: #383838; stroke-width: 1.5;" width="69" x="27.5" y="8"/><ellipse cx="42.5" cy="24" fill="#9B9B9B" rx="11" ry="11" style="stroke: #383838; stroke-width: 1.0;"/><path d="M43.3438,30.75 L40.8906,30.75 L40.8906,20.5 L37.75,20.5 L37.75,18.3594 L46.4844,18.3594 L46.4844,20.5 L43.3438,20.5 L43.3438,30.75 Z "/><text fill="#000000" font-family="sans-serif" font-size="12" lengthAdjust="spacingAndGlyphs" textLength="37" x="56.5" y="28.1543">Super</text><!--class Sub--><rect fill="#FFFFFF" height="32" id="Sub" style="stroke: #383838; stroke-width: 1.5;" width="56" x="34" y="100"/><ellipse cx="49" cy="116" fill="#9B9B9B" rx="11" ry="11" style="stroke: #383838; stroke-width: 1.0;"/><path d="M49.8438,122.75 L47.3906,122.75 L47.3906,112.5 L44.25,112.5 L44.25,110.3594 L52.9844,110.3594 L52.9844,112.5 L49.8438,112.5 L49.8438,122.75 Z "/><text fill="#000000" font-family="sans-serif" font-size="12" lengthAdjust="spacingAndGlyphs" textLength="24" x="63" y="120.1543">Sub</text><!--link Super to Sub--><path d="M62,40.2673 C62,56.9175 62,83.3974 62,99.9582 " fill="none" id="Super-Sub" style="stroke: #383838; stroke-width: 1.0;"/><text fill="#000000" font-family="sans-serif" font-size="13" lengthAdjust="spacingAndGlyphs" textLength="43" x="12.1469" y="59.9312">supers</text><ellipse cx="19.4531" cy="84.5213" fill="#000000" rx="2.5" ry="2.5" style="stroke: #000000; stroke-width: 0.0;"/><text fill="#000000" font-family="sans-serif" font-size="13" lengthAdjust="spacingAndGlyphs" textLength="30" x="24.9531" y="88.9554">subs</text><!--
@startuml
skinparam shadowing false
skinparam monochrome true
skinparam class {
	BackgroundColor White
}
hide empty members
class Super << (T,orchid) >> {
 }
class Sub << (T,orchid) >> {
 }
Super "supers" - - "* subs" Sub
@enduml

PlantUML version 1.2018.08(Sun Jun 24 14:31:00 CEST 2018)
(GPL source distribution)
Java Runtime: OpenJDK Runtime Environment
JVM: OpenJDK Server VM
Java Version: 1.8.0_171-8u171-b11-0ubuntu0.16.04.1-b11
Operating System: Linux
OS Version: 4.4.0-121-generic
Default Encoding: UTF-8
Language: en
Country: US
--></g></svg>