<?xml version="1.0" encoding="UTF-8" standalone="no"?><svg xmlns="http://www.w3.org/2000/svg" xmlns:xlink="http://www.w3.org/1999/xlink" contentScriptType="application/ecmascript" contentStyleType="text/css" height="143px" preserveAspectRatio="none" style="width:222px;height:143px;" version="1.1" viewBox="0 0 222 143" width="222px" zoomAndPan="magnify"><defs/><g><!--class SubInheritance--><rect fill="#FFFFFF" height="32" id="SubInheritance" style="stroke: #383838; stroke-width: 1.5;" width="127" x="67.5" y="8"/><ellipse cx="82.5" cy="24" fill="#9B9B9B" rx="11" ry="11" style="stroke: #383838; stroke-width: 1.0;"/><path d="M83.3438,30.75 L80.8906,30.75 L80.8906,20.5 L77.75,20.5 L77.75,18.3594 L86.4844,18.3594 L86.4844,20.5 L83.3438,20.5 L83.3438,30.75 Z "/><text fill="#000000" font-family="sans-serif" font-size="12" lengthAdjust="spacingAndGlyphs" textLength="95" x="96.5" y="28.1543">SubInheritance</text><!--class WithSubInheritances--><rect fill="#FFFFFF" height="32" id="WithSubInheritances" style="stroke: #383838; stroke-width: 1.5;" width="161" x="50.5" y="100"/><ellipse cx="65.5" cy="116" fill="#9B9B9B" rx="11" ry="11" style="stroke: #383838; stroke-width: 1.0;"/><path d="M66.3438,122.75 L63.8906,122.75 L63.8906,112.5 L60.75,112.5 L60.75,110.3594 L69.4844,110.3594 L69.4844,112.5 L66.3438,112.5 L66.3438,122.75 Z "/><text fill="#000000" font-family="sans-serif" font-size="12" lengthAdjust="spacingAndGlyphs" textLength="129" x="79.5" y="120.1543">WithSubInheritances</text><!--link SubInheritance to WithSubInheritances--><path d="M131,40.2673 C131,56.9175 131,83.3974 131,99.9582 " fill="none" id="SubInheritance-WithSubInheritances" style="stroke: #383838; stroke-width: 1.0;"/><ellipse cx="-8.4219" cy="55.4971" fill="#000000" rx="2.5" ry="2.5" style="stroke: #000000; stroke-width: 0.0;"/><text fill="#000000" font-family="sans-serif" font-size="13" lengthAdjust="spacingAndGlyphs" textLength="114" x="-2.9219" y="59.9312">superInheritances</text><text fill="#000000" font-family="sans-serif" font-size="13" lengthAdjust="spacingAndGlyphs" textLength="55" x="66.5469" y="88.9554">subclass</text><!--
@startuml
skinparam shadowing false
skinparam monochrome true
skinparam class {
	BackgroundColor White
}
hide empty members
class SubInheritance << (T,orchid) >> {
 }
class WithSubInheritances << (T,orchid) >> {
 }
SubInheritance "* superInheritances" - - "subclass" WithSubInheritances
@enduml

PlantUML version 1.2018.08(Sun Jun 24 14:31:00 CEST 2018)
(GPL source distribution)
Java Runtime: OpenJDK Runtime Environment
JVM: OpenJDK Server VM
Java Version: 1.8.0_171-8u171-b11-0ubuntu0.16.04.1-b11
Operating System: Linux
OS Version: 4.4.0-121-generic
Default Encoding: UTF-8
Language: en
Country: US
--></g></svg>