<?xml version="1.0" encoding="UTF-8" standalone="no"?><svg xmlns="http://www.w3.org/2000/svg" xmlns:xlink="http://www.w3.org/1999/xlink" contentScriptType="application/ecmascript" contentStyleType="text/css" height="143px" preserveAspectRatio="none" style="width:216px;height:143px;" version="1.1" viewBox="0 0 216 143" width="216px" zoomAndPan="magnify"><defs/><g><!--class SuperInheritance--><rect fill="#FFFFFF" height="32" id="SuperInheritance" style="stroke: #383838; stroke-width: 1.5;" width="140" x="48" y="8"/><ellipse cx="63" cy="24" fill="#9B9B9B" rx="11" ry="11" style="stroke: #383838; stroke-width: 1.0;"/><path d="M63.8438,30.75 L61.3906,30.75 L61.3906,20.5 L58.25,20.5 L58.25,18.3594 L66.9844,18.3594 L66.9844,20.5 L63.8438,20.5 L63.8438,30.75 Z "/><text fill="#000000" font-family="sans-serif" font-size="12" lengthAdjust="spacingAndGlyphs" textLength="108" x="77" y="28.1543">SuperInheritance</text><!--class WithSuperInheritances--><rect fill="#FFFFFF" height="32" id="WithSuperInheritances" style="stroke: #383838; stroke-width: 1.5;" width="174" x="31" y="100"/><ellipse cx="46" cy="116" fill="#9B9B9B" rx="11" ry="11" style="stroke: #383838; stroke-width: 1.0;"/><path d="M46.8438,122.75 L44.3906,122.75 L44.3906,112.5 L41.25,112.5 L41.25,110.3594 L49.9844,110.3594 L49.9844,112.5 L46.8438,112.5 L46.8438,122.75 Z "/><text fill="#000000" font-family="sans-serif" font-size="12" lengthAdjust="spacingAndGlyphs" textLength="142" x="60" y="120.1543">WithSuperInheritances</text><!--link SuperInheritance to WithSuperInheritances--><path d="M118,40.2673 C118,56.9175 118,83.3974 118,99.9582 " fill="none" id="SuperInheritance-WithSuperInheritances" style="stroke: #383838; stroke-width: 1.0;"/><ellipse cx="-6.35" cy="55.4971" fill="#000000" rx="2.5" ry="2.5" style="stroke: #000000; stroke-width: 0.0;"/><text fill="#000000" font-family="sans-serif" font-size="13" lengthAdjust="spacingAndGlyphs" textLength="101" x="-0.85" y="59.9312">subInheritances</text><text fill="#000000" font-family="sans-serif" font-size="13" lengthAdjust="spacingAndGlyphs" textLength="68" x="38.3125" y="88.9554">superclass</text><!--
@startuml
skinparam shadowing false
skinparam monochrome true
skinparam class {
	BackgroundColor White
}
hide empty members
class SuperInheritance << (T,orchid) >> {
 }
class WithSuperInheritances << (T,orchid) >> {
 }
SuperInheritance "* subInheritances" - - "superclass" WithSuperInheritances
@enduml

PlantUML version 1.2018.08(Sun Jun 24 14:31:00 CEST 2018)
(GPL source distribution)
Java Runtime: OpenJDK Runtime Environment
JVM: OpenJDK Server VM
Java Version: 1.8.0_171-8u171-b11-0ubuntu0.16.04.1-b11
Operating System: Linux
OS Version: 4.4.0-121-generic
Default Encoding: UTF-8
Language: en
Country: US
--></g></svg>