<?xml version="1.0" encoding="UTF-8" standalone="no"?><svg xmlns="http://www.w3.org/2000/svg" xmlns:xlink="http://www.w3.org/1999/xlink" contentScriptType="application/ecmascript" contentStyleType="text/css" height="143px" preserveAspectRatio="none" style="width:333px;height:143px;" version="1.1" viewBox="0 0 333 143" width="333px" zoomAndPan="magnify"><defs/><g><!--class Template--><rect fill="#FFFFFF" height="32" id="Template" style="stroke: #383838; stroke-width: 1.5;" width="90" x="138.964" y="8"/><ellipse cx="153.964" cy="24" fill="#9B9B9B" rx="11" ry="11" style="stroke: #383838; stroke-width: 1.0;"/><path d="M154.8078,30.75 L152.3546,30.75 L152.3546,20.5 L149.214,20.5 L149.214,18.3594 L157.9484,18.3594 L157.9484,20.5 L154.8078,20.5 L154.8078,30.75 Z "/><text fill="#000000" font-family="sans-serif" font-size="12" lengthAdjust="spacingAndGlyphs" textLength="58" x="167.964" y="28.1543">Template</text><!--class WithTemplates--><rect fill="#FFFFFF" height="32" id="WithTemplates" style="stroke: #383838; stroke-width: 1.5;" width="124" x="43.9638" y="100"/><ellipse cx="58.9638" cy="116" fill="#9B9B9B" rx="11" ry="11" style="stroke: #383838; stroke-width: 1.0;"/><path d="M59.8076,122.75 L57.3544,122.75 L57.3544,112.5 L54.2138,112.5 L54.2138,110.3594 L62.9482,110.3594 L62.9482,112.5 L59.8076,112.5 L59.8076,122.75 Z "/><text fill="#000000" font-family="sans-serif" font-size="12" lengthAdjust="spacingAndGlyphs" textLength="92" x="72.9638" y="120.1543">WithTemplates</text><!--class TemplateUser--><rect fill="#FFFFFF" height="32" id="TemplateUser" style="stroke: #383838; stroke-width: 1.5;" width="119" x="203.464" y="100"/><ellipse cx="218.464" cy="116" fill="#9B9B9B" rx="11" ry="11" style="stroke: #383838; stroke-width: 1.0;"/><path d="M219.3078,122.75 L216.8546,122.75 L216.8546,112.5 L213.714,112.5 L213.714,110.3594 L222.4484,110.3594 L222.4484,112.5 L219.3078,112.5 L219.3078,122.75 Z "/><text fill="#000000" font-family="sans-serif" font-size="12" lengthAdjust="spacingAndGlyphs" textLength="87" x="232.464" y="120.1543">TemplateUser</text><!--link Template to WithTemplates--><path d="M170.732,40.2673 C156.302,56.9175 133.353,83.3974 119,99.9582 " fill="none" id="Template-WithTemplates" style="stroke: #383838; stroke-width: 1.0;"/><ellipse cx="83.9019" cy="55.4971" fill="#000000" rx="2.5" ry="2.5" style="stroke: #000000; stroke-width: 0.0;"/><text fill="#000000" font-family="sans-serif" font-size="13" lengthAdjust="spacingAndGlyphs" textLength="65" x="89.4019" y="59.9312">templates</text><text fill="#000000" font-family="sans-serif" font-size="13" lengthAdjust="spacingAndGlyphs" textLength="98" x="8.6374" y="88.9554">templateOwner</text><!--link Template to TemplateUser--><path d="M197.365,40.2673 C211.98,56.9175 235.224,83.3974 249.76,99.9582 " fill="none" id="Template-TemplateUser" style="stroke: #383838; stroke-width: 1.0;"/><text fill="#000000" font-family="sans-serif" font-size="13" lengthAdjust="spacingAndGlyphs" textLength="58" x="210.8803" y="59.9312">template</text><ellipse cx="180.4165" cy="84.4721" fill="#000000" rx="2.5" ry="2.5" style="stroke: #000000; stroke-width: 0.0;"/><text fill="#000000" font-family="sans-serif" font-size="13" lengthAdjust="spacingAndGlyphs" textLength="95" x="185.9165" y="88.9061">templateUsers</text><!--
@startuml
skinparam shadowing false
skinparam monochrome true
skinparam class {
	BackgroundColor White
}
hide empty members
class Template << (T,orchid) >> {
 }
class WithTemplates << (T,orchid) >> {
 }
class TemplateUser << (T,orchid) >> {
 }
Template "* templates" - - "templateOwner" WithTemplates
Template "template" - - "* templateUsers" TemplateUser
@enduml

PlantUML version 1.2018.08(Sun Jun 24 14:31:00 CEST 2018)
(GPL source distribution)
Java Runtime: OpenJDK Runtime Environment
JVM: OpenJDK Server VM
Java Version: 1.8.0_171-8u171-b11-0ubuntu0.16.04.1-b11
Operating System: Linux
OS Version: 4.4.0-121-generic
Default Encoding: UTF-8
Language: en
Country: US
--></g></svg>