<?xml version="1.0" encoding="UTF-8" standalone="no"?><svg xmlns="http://www.w3.org/2000/svg" xmlns:xlink="http://www.w3.org/1999/xlink" contentScriptType="application/ecmascript" contentStyleType="text/css" height="143px" preserveAspectRatio="none" style="width:241px;height:143px;" version="1.1" viewBox="0 0 241 143" width="241px" zoomAndPan="magnify"><defs/><g><!--class WithThrownExceptions--><rect fill="#FFFFFF" height="32" id="WithThrownExceptions" style="stroke: #383838; stroke-width: 1.5;" width="172" x="58" y="8"/><ellipse cx="73" cy="24" fill="#9B9B9B" rx="11" ry="11" style="stroke: #383838; stroke-width: 1.0;"/><path d="M73.8438,30.75 L71.3906,30.75 L71.3906,20.5 L68.25,20.5 L68.25,18.3594 L76.9844,18.3594 L76.9844,20.5 L73.8438,20.5 L73.8438,30.75 Z "/><text fill="#000000" font-family="sans-serif" font-size="12" lengthAdjust="spacingAndGlyphs" textLength="140" x="87" y="28.1543">WithThrownExceptions</text><!--class ThrownException--><rect fill="#FFFFFF" height="32" id="ThrownException" style="stroke: #383838; stroke-width: 1.5;" width="138" x="75" y="100"/><ellipse cx="90" cy="116" fill="#9B9B9B" rx="11" ry="11" style="stroke: #383838; stroke-width: 1.0;"/><path d="M90.8438,122.75 L88.3906,122.75 L88.3906,112.5 L85.25,112.5 L85.25,110.3594 L93.9844,110.3594 L93.9844,112.5 L90.8438,112.5 L90.8438,122.75 Z "/><text fill="#000000" font-family="sans-serif" font-size="12" lengthAdjust="spacingAndGlyphs" textLength="106" x="104" y="120.1543">ThrownException</text><!--link WithThrownExceptions to ThrownException--><path d="M144,40.2673 C144,56.9175 144,83.3974 144,99.9582 " fill="none" id="WithThrownExceptions-ThrownException" style="stroke: #383838; stroke-width: 1.0;"/><text fill="#000000" font-family="sans-serif" font-size="13" lengthAdjust="spacingAndGlyphs" textLength="86" x="44.2937" y="59.9312">definingEntity</text><ellipse cx="5.3594" cy="84.5213" fill="#000000" rx="2.5" ry="2.5" style="stroke: #000000; stroke-width: 0.0;"/><text fill="#000000" font-family="sans-serif" font-size="13" lengthAdjust="spacingAndGlyphs" textLength="112" x="10.8594" y="88.9554">thrownExceptions</text><!--
@startuml
skinparam shadowing false
skinparam monochrome true
skinparam class {
	BackgroundColor White
}
hide empty members
class WithThrownExceptions << (T,orchid) >> {
 }
class ThrownException << (T,orchid) >> {
 }
WithThrownExceptions "definingEntity" - - "* thrownExceptions" ThrownException
@enduml

PlantUML version 1.2018.08(Sun Jun 24 14:31:00 CEST 2018)
(GPL source distribution)
Java Runtime: OpenJDK Runtime Environment
JVM: OpenJDK Server VM
Java Version: 1.8.0_171-8u171-b11-0ubuntu0.16.04.1-b11
Operating System: Linux
OS Version: 4.4.0-121-generic
Default Encoding: UTF-8
Language: en
Country: US
--></g></svg>