<?xml version="1.0" encoding="UTF-8" standalone="no"?><svg xmlns="http://www.w3.org/2000/svg" xmlns:xlink="http://www.w3.org/1999/xlink" contentScriptType="application/ecmascript" contentStyleType="text/css" height="143px" preserveAspectRatio="none" style="width:288px;height:143px;" version="1.1" viewBox="0 0 288 143" width="288px" zoomAndPan="magnify"><defs/><g><!--class TypedStructure--><rect fill="#FFFFFF" height="32" id="TypedStructure" style="stroke: #383838; stroke-width: 1.5;" width="128" x="132" y="8"/><ellipse cx="147" cy="24" fill="#9B9B9B" rx="11" ry="11" style="stroke: #383838; stroke-width: 1.0;"/><path d="M147.8438,30.75 L145.3906,30.75 L145.3906,20.5 L142.25,20.5 L142.25,18.3594 L150.9844,18.3594 L150.9844,20.5 L147.8438,20.5 L147.8438,30.75 Z "/><text fill="#000000" font-family="sans-serif" font-size="12" lengthAdjust="spacingAndGlyphs" textLength="96" x="161" y="28.1543">TypedStructure</text><!--class WithTypedStructures--><rect fill="#FFFFFF" height="32" id="WithTypedStructures" style="stroke: #383838; stroke-width: 1.5;" width="162" x="115" y="100"/><ellipse cx="130" cy="116" fill="#9B9B9B" rx="11" ry="11" style="stroke: #383838; stroke-width: 1.0;"/><path d="M130.8438,122.75 L128.3906,122.75 L128.3906,112.5 L125.25,112.5 L125.25,110.3594 L133.9844,110.3594 L133.9844,112.5 L130.8438,112.5 L130.8438,122.75 Z "/><text fill="#000000" font-family="sans-serif" font-size="12" lengthAdjust="spacingAndGlyphs" textLength="130" x="144" y="120.1543">WithTypedStructures</text><!--link TypedStructure to WithTypedStructures--><path d="M196,40.2673 C196,56.9175 196,83.3974 196,99.9582 " fill="none" id="TypedStructure-WithTypedStructures" style="stroke: #383838; stroke-width: 1.0;"/><ellipse cx="-18.7813" cy="55.4971" fill="#000000" rx="2.5" ry="2.5" style="stroke: #000000; stroke-width: 0.0;"/><text fill="#000000" font-family="sans-serif" font-size="13" lengthAdjust="spacingAndGlyphs" textLength="179" x="-13.2813" y="59.9312">structuresWithDeclaredType</text><text fill="#000000" font-family="sans-serif" font-size="13" lengthAdjust="spacingAndGlyphs" textLength="85" x="96.3906" y="88.9554">declaredType</text><!--
@startuml
skinparam shadowing false
skinparam monochrome true
skinparam class {
	BackgroundColor White
}
hide empty members
class TypedStructure << (T,orchid) >> {
 }
class WithTypedStructures << (T,orchid) >> {
 }
TypedStructure "* structuresWithDeclaredType" - - "declaredType" WithTypedStructures
@enduml

PlantUML version 1.2018.08(Sun Jun 24 14:31:00 CEST 2018)
(GPL source distribution)
Java Runtime: OpenJDK Runtime Environment
JVM: OpenJDK Server VM
Java Version: 1.8.0_171-8u171-b11-0ubuntu0.16.04.1-b11
Operating System: Linux
OS Version: 4.4.0-121-generic
Default Encoding: UTF-8
Language: en
Country: US
--></g></svg>