<?xml version="1.0" encoding="UTF-8" standalone="no"?><svg xmlns="http://www.w3.org/2000/svg" xmlns:xlink="http://www.w3.org/1999/xlink" contentScriptType="application/ecmascript" contentStyleType="text/css" height="143px" preserveAspectRatio="none" style="width:182px;height:143px;" version="1.1" viewBox="0 0 182 143" width="182px" zoomAndPan="magnify"><defs/><g><!--class WithTypeAliases--><rect fill="#FFFFFF" height="32" id="WithTypeAliases" style="stroke: #383838; stroke-width: 1.5;" width="132" x="39" y="8"/><ellipse cx="54" cy="24" fill="#9B9B9B" rx="11" ry="11" style="stroke: #383838; stroke-width: 1.0;"/><path d="M54.8438,30.75 L52.3906,30.75 L52.3906,20.5 L49.25,20.5 L49.25,18.3594 L57.9844,18.3594 L57.9844,20.5 L54.8438,20.5 L54.8438,30.75 Z "/><text fill="#000000" font-family="sans-serif" font-size="12" lengthAdjust="spacingAndGlyphs" textLength="100" x="68" y="28.1543">WithTypeAliases</text><!--class TypeAlias--><rect fill="#FFFFFF" height="32" id="TypeAlias" style="stroke: #383838; stroke-width: 1.5;" width="90" x="60" y="100"/><ellipse cx="75" cy="116" fill="#9B9B9B" rx="11" ry="11" style="stroke: #383838; stroke-width: 1.0;"/><path d="M75.8438,122.75 L73.3906,122.75 L73.3906,112.5 L70.25,112.5 L70.25,110.3594 L78.9844,110.3594 L78.9844,112.5 L75.8438,112.5 L75.8438,122.75 Z "/><text fill="#000000" font-family="sans-serif" font-size="12" lengthAdjust="spacingAndGlyphs" textLength="58" x="89" y="120.1543">TypeAlias</text><!--link WithTypeAliases to TypeAlias--><path d="M105,40.2673 C105,56.9175 105,83.3974 105,99.9582 " fill="none" id="WithTypeAliases-TypeAlias" style="stroke: #383838; stroke-width: 1.0;"/><text fill="#000000" font-family="sans-serif" font-size="13" lengthAdjust="spacingAndGlyphs" textLength="75" x="18.0469" y="59.9312">aliasedType</text><ellipse cx="12.0625" cy="84.5213" fill="#000000" rx="2.5" ry="2.5" style="stroke: #000000; stroke-width: 0.0;"/><text fill="#000000" font-family="sans-serif" font-size="13" lengthAdjust="spacingAndGlyphs" textLength="73" x="17.5625" y="88.9554">typeAliases</text><!--
@startuml
skinparam shadowing false
skinparam monochrome true
skinparam class {
	BackgroundColor White
}
hide empty members
class WithTypeAliases << (T,orchid) >> {
 }
class TypeAlias << (T,orchid) >> {
 }
WithTypeAliases "aliasedType" - - "* typeAliases" TypeAlias
@enduml

PlantUML version 1.2018.08(Sun Jun 24 14:31:00 CEST 2018)
(GPL source distribution)
Java Runtime: OpenJDK Runtime Environment
JVM: OpenJDK Server VM
Java Version: 1.8.0_171-8u171-b11-0ubuntu0.16.04.1-b11
Operating System: Linux
OS Version: 4.4.0-121-generic
Default Encoding: UTF-8
Language: en
Country: US
--></g></svg>