<?xml version="1.0" encoding="UTF-8" standalone="no"?><svg xmlns="http://www.w3.org/2000/svg" xmlns:xlink="http://www.w3.org/1999/xlink" contentScriptType="application/ecmascript" contentStyleType="text/css" height="143px" preserveAspectRatio="none" style="width:1042px;height:143px;" version="1.1" viewBox="0 0 1042 143" width="1042px" zoomAndPan="magnify"><defs><filter height="300%" id="f1aharsgaae10k" width="300%" x="-1" y="-1"><feGaussianBlur result="blurOut" stdDeviation="2.0"/><feColorMatrix in="blurOut" result="blurOut2" type="matrix" values="0 0 0 0 0 0 0 0 0 0 0 0 0 0 0 0 0 0 .4 0"/><feOffset dx="4.0" dy="4.0" in="blurOut2" result="blurOut3"/><feBlend in="SourceGraphic" in2="blurOut3" mode="normal"/></filter></defs><g><!--class behavior1--><rect fill="#FEFECE" filter="url(#f1aharsgaae10k)" height="32" id="behavior1" style="stroke: #A80036; stroke-width: 1.5;" width="67" x="126.5" y="8"/><ellipse cx="141.5" cy="24" fill="#ADD1B2" rx="11" ry="11" style="stroke: #A80036; stroke-width: 1.0;"/><path d="M143.8438,19.6719 L144.0156,19.75 C144.2344,19.4375 144.4375,19.3438 144.7344,19.3438 C145.0313,19.3438 145.3125,19.4844 145.4688,19.75 C145.5625,19.9063 145.5781,20.0313 145.5781,20.4688 L145.5781,21.8906 C145.5781,22.3125 145.5469,22.5 145.4375,22.6563 C145.2656,22.875 145,23.0156 144.7344,23.0156 C144.5156,23.0156 144.2813,22.9063 144.1406,22.7656 C144,22.6406 143.9688,22.5156 143.9063,22.1094 C143.8125,21.7031 143.6406,21.4844 143.1563,21.2031 C142.6875,20.9531 142.0781,20.7969 141.5,20.7969 C139.7656,20.7969 138.5156,22.1094 138.5156,23.8906 L138.5156,24.9844 C138.5156,26.6875 139.8125,27.7813 141.8594,27.7813 C142.625,27.7813 143.3125,27.6563 143.7344,27.3906 C143.9219,27.2969 143.9219,27.2969 144.375,26.8125 C144.5625,26.625 144.7656,26.5469 144.9844,26.5469 C145.4531,26.5469 145.8438,26.9375 145.8438,27.3906 C145.8438,27.7813 145.5156,28.2344 144.9375,28.6406 C144.1875,29.1875 143.0313,29.4844 141.8125,29.4844 C138.9219,29.4844 136.8125,27.5938 136.8125,25.0156 L136.8125,23.8906 C136.8125,21.1719 138.8125,19.0938 141.4375,19.0938 C142.3125,19.0938 142.9063,19.2344 143.8438,19.6719 Z "/><text fill="#000000" font-family="sans-serif" font-size="12" lengthAdjust="spacingAndGlyphs" textLength="35" x="155.5" y="28.1543">Entity</text><!--class behavior2--><rect fill="#FEFECE" filter="url(#f1aharsgaae10k)" height="32" id="behavior2" style="stroke: #A80036; stroke-width: 1.5;" width="91" x="373.5" y="8"/><ellipse cx="388.5" cy="24" fill="#ADD1B2" rx="11" ry="11" style="stroke: #A80036; stroke-width: 1.0;"/><path d="M390.8438,19.6719 L391.0156,19.75 C391.2344,19.4375 391.4375,19.3438 391.7344,19.3438 C392.0313,19.3438 392.3125,19.4844 392.4688,19.75 C392.5625,19.9063 392.5781,20.0313 392.5781,20.4688 L392.5781,21.8906 C392.5781,22.3125 392.5469,22.5 392.4375,22.6563 C392.2656,22.875 392,23.0156 391.7344,23.0156 C391.5156,23.0156 391.2813,22.9063 391.1406,22.7656 C391,22.6406 390.9688,22.5156 390.9063,22.1094 C390.8125,21.7031 390.6406,21.4844 390.1563,21.2031 C389.6875,20.9531 389.0781,20.7969 388.5,20.7969 C386.7656,20.7969 385.5156,22.1094 385.5156,23.8906 L385.5156,24.9844 C385.5156,26.6875 386.8125,27.7813 388.8594,27.7813 C389.625,27.7813 390.3125,27.6563 390.7344,27.3906 C390.9219,27.2969 390.9219,27.2969 391.375,26.8125 C391.5625,26.625 391.7656,26.5469 391.9844,26.5469 C392.4531,26.5469 392.8438,26.9375 392.8438,27.3906 C392.8438,27.7813 392.5156,28.2344 391.9375,28.6406 C391.1875,29.1875 390.0313,29.4844 388.8125,29.4844 C385.9219,29.4844 383.8125,27.5938 383.8125,25.0156 L383.8125,23.8906 C383.8125,21.1719 385.8125,19.0938 388.4375,19.0938 C389.3125,19.0938 389.9063,19.2344 390.8438,19.6719 Z "/><text fill="#000000" font-family="sans-serif" font-size="12" lengthAdjust="spacingAndGlyphs" textLength="59" x="402.5" y="28.1543">Comment</text><!--class behavior3--><rect fill="#FEFECE" filter="url(#f1aharsgaae10k)" height="32" id="behavior3" style="stroke: #A80036; stroke-width: 1.5;" width="83" x="644.5" y="8"/><ellipse cx="659.5" cy="24" fill="#ADD1B2" rx="11" ry="11" style="stroke: #A80036; stroke-width: 1.0;"/><path d="M661.8438,19.6719 L662.0156,19.75 C662.2344,19.4375 662.4375,19.3438 662.7344,19.3438 C663.0313,19.3438 663.3125,19.4844 663.4688,19.75 C663.5625,19.9063 663.5781,20.0313 663.5781,20.4688 L663.5781,21.8906 C663.5781,22.3125 663.5469,22.5 663.4375,22.6563 C663.2656,22.875 663,23.0156 662.7344,23.0156 C662.5156,23.0156 662.2813,22.9063 662.1406,22.7656 C662,22.6406 661.9688,22.5156 661.9063,22.1094 C661.8125,21.7031 661.6406,21.4844 661.1563,21.2031 C660.6875,20.9531 660.0781,20.7969 659.5,20.7969 C657.7656,20.7969 656.5156,22.1094 656.5156,23.8906 L656.5156,24.9844 C656.5156,26.6875 657.8125,27.7813 659.8594,27.7813 C660.625,27.7813 661.3125,27.6563 661.7344,27.3906 C661.9219,27.2969 661.9219,27.2969 662.375,26.8125 C662.5625,26.625 662.7656,26.5469 662.9844,26.5469 C663.4531,26.5469 663.8438,26.9375 663.8438,27.3906 C663.8438,27.7813 663.5156,28.2344 662.9375,28.6406 C662.1875,29.1875 661.0313,29.4844 659.8125,29.4844 C656.9219,29.4844 654.8125,27.5938 654.8125,25.0156 L654.8125,23.8906 C654.8125,21.1719 656.8125,19.0938 659.4375,19.0938 C660.3125,19.0938 660.9063,19.2344 661.8438,19.6719 Z "/><text fill="#000000" font-family="sans-serif" font-size="12" lengthAdjust="spacingAndGlyphs" textLength="51" x="673.5" y="28.1543">Variable</text><!--class behavior4--><rect fill="#FEFECE" filter="url(#f1aharsgaae10k)" height="32" id="behavior4" style="stroke: #A80036; stroke-width: 1.5;" width="86" x="6" y="100"/><ellipse cx="21" cy="116" fill="#ADD1B2" rx="11" ry="11" style="stroke: #A80036; stroke-width: 1.0;"/><path d="M23.3438,111.6719 L23.5156,111.75 C23.7344,111.4375 23.9375,111.3438 24.2344,111.3438 C24.5313,111.3438 24.8125,111.4844 24.9688,111.75 C25.0625,111.9063 25.0781,112.0313 25.0781,112.4688 L25.0781,113.8906 C25.0781,114.3125 25.0469,114.5 24.9375,114.6563 C24.7656,114.875 24.5,115.0156 24.2344,115.0156 C24.0156,115.0156 23.7813,114.9063 23.6406,114.7656 C23.5,114.6406 23.4688,114.5156 23.4063,114.1094 C23.3125,113.7031 23.1406,113.4844 22.6563,113.2031 C22.1875,112.9531 21.5781,112.7969 21,112.7969 C19.2656,112.7969 18.0156,114.1094 18.0156,115.8906 L18.0156,116.9844 C18.0156,118.6875 19.3125,119.7813 21.3594,119.7813 C22.125,119.7813 22.8125,119.6563 23.2344,119.3906 C23.4219,119.2969 23.4219,119.2969 23.875,118.8125 C24.0625,118.625 24.2656,118.5469 24.4844,118.5469 C24.9531,118.5469 25.3438,118.9375 25.3438,119.3906 C25.3438,119.7813 25.0156,120.2344 24.4375,120.6406 C23.6875,121.1875 22.5313,121.4844 21.3125,121.4844 C18.4219,121.4844 16.3125,119.5938 16.3125,117.0156 L16.3125,115.8906 C16.3125,113.1719 18.3125,111.0938 20.9375,111.0938 C21.8125,111.0938 22.4063,111.2344 23.3438,111.6719 Z "/><text fill="#000000" font-family="sans-serif" font-size="12" lengthAdjust="spacingAndGlyphs" textLength="54" x="35" y="120.1543">Package</text><!--class behavior5--><rect fill="#FEFECE" filter="url(#f1aharsgaae10k)" height="32" id="behavior5" style="stroke: #A80036; stroke-width: 1.5;" width="65" x="127.5" y="100"/><ellipse cx="142.5" cy="116" fill="#ADD1B2" rx="11" ry="11" style="stroke: #A80036; stroke-width: 1.0;"/><path d="M144.8438,111.6719 L145.0156,111.75 C145.2344,111.4375 145.4375,111.3438 145.7344,111.3438 C146.0313,111.3438 146.3125,111.4844 146.4688,111.75 C146.5625,111.9063 146.5781,112.0313 146.5781,112.4688 L146.5781,113.8906 C146.5781,114.3125 146.5469,114.5 146.4375,114.6563 C146.2656,114.875 146,115.0156 145.7344,115.0156 C145.5156,115.0156 145.2813,114.9063 145.1406,114.7656 C145,114.6406 144.9688,114.5156 144.9063,114.1094 C144.8125,113.7031 144.6406,113.4844 144.1563,113.2031 C143.6875,112.9531 143.0781,112.7969 142.5,112.7969 C140.7656,112.7969 139.5156,114.1094 139.5156,115.8906 L139.5156,116.9844 C139.5156,118.6875 140.8125,119.7813 142.8594,119.7813 C143.625,119.7813 144.3125,119.6563 144.7344,119.3906 C144.9219,119.2969 144.9219,119.2969 145.375,118.8125 C145.5625,118.625 145.7656,118.5469 145.9844,118.5469 C146.4531,118.5469 146.8438,118.9375 146.8438,119.3906 C146.8438,119.7813 146.5156,120.2344 145.9375,120.6406 C145.1875,121.1875 144.0313,121.4844 142.8125,121.4844 C139.9219,121.4844 137.8125,119.5938 137.8125,117.0156 L137.8125,115.8906 C137.8125,113.1719 139.8125,111.0938 142.4375,111.0938 C143.3125,111.0938 143.9063,111.2344 144.8438,111.6719 Z "/><text fill="#000000" font-family="sans-serif" font-size="12" lengthAdjust="spacingAndGlyphs" textLength="33" x="156.5" y="120.1543">Class</text><!--class behavior6--><rect fill="#FEFECE" filter="url(#f1aharsgaae10k)" height="32" id="behavior6" style="stroke: #A80036; stroke-width: 1.5;" width="79" x="227.5" y="100"/><ellipse cx="242.5" cy="116" fill="#ADD1B2" rx="11" ry="11" style="stroke: #A80036; stroke-width: 1.0;"/><path d="M244.8438,111.6719 L245.0156,111.75 C245.2344,111.4375 245.4375,111.3438 245.7344,111.3438 C246.0313,111.3438 246.3125,111.4844 246.4688,111.75 C246.5625,111.9063 246.5781,112.0313 246.5781,112.4688 L246.5781,113.8906 C246.5781,114.3125 246.5469,114.5 246.4375,114.6563 C246.2656,114.875 246,115.0156 245.7344,115.0156 C245.5156,115.0156 245.2813,114.9063 245.1406,114.7656 C245,114.6406 244.9688,114.5156 244.9063,114.1094 C244.8125,113.7031 244.6406,113.4844 244.1563,113.2031 C243.6875,112.9531 243.0781,112.7969 242.5,112.7969 C240.7656,112.7969 239.5156,114.1094 239.5156,115.8906 L239.5156,116.9844 C239.5156,118.6875 240.8125,119.7813 242.8594,119.7813 C243.625,119.7813 244.3125,119.6563 244.7344,119.3906 C244.9219,119.2969 244.9219,119.2969 245.375,118.8125 C245.5625,118.625 245.7656,118.5469 245.9844,118.5469 C246.4531,118.5469 246.8438,118.9375 246.8438,119.3906 C246.8438,119.7813 246.5156,120.2344 245.9375,120.6406 C245.1875,121.1875 244.0313,121.4844 242.8125,121.4844 C239.9219,121.4844 237.8125,119.5938 237.8125,117.0156 L237.8125,115.8906 C237.8125,113.1719 239.8125,111.0938 242.4375,111.0938 C243.3125,111.0938 243.9063,111.2344 244.8438,111.6719 Z "/><text fill="#000000" font-family="sans-serif" font-size="12" lengthAdjust="spacingAndGlyphs" textLength="47" x="256.5" y="120.1543">Method</text><!--class behavior7--><rect fill="#FEFECE" filter="url(#f1aharsgaae10k)" height="32" id="behavior7" style="stroke: #A80036; stroke-width: 1.5;" width="87" x="341.5" y="100"/><ellipse cx="356.5" cy="116" fill="#ADD1B2" rx="11" ry="11" style="stroke: #A80036; stroke-width: 1.0;"/><path d="M358.8438,111.6719 L359.0156,111.75 C359.2344,111.4375 359.4375,111.3438 359.7344,111.3438 C360.0313,111.3438 360.3125,111.4844 360.4688,111.75 C360.5625,111.9063 360.5781,112.0313 360.5781,112.4688 L360.5781,113.8906 C360.5781,114.3125 360.5469,114.5 360.4375,114.6563 C360.2656,114.875 360,115.0156 359.7344,115.0156 C359.5156,115.0156 359.2813,114.9063 359.1406,114.7656 C359,114.6406 358.9688,114.5156 358.9063,114.1094 C358.8125,113.7031 358.6406,113.4844 358.1563,113.2031 C357.6875,112.9531 357.0781,112.7969 356.5,112.7969 C354.7656,112.7969 353.5156,114.1094 353.5156,115.8906 L353.5156,116.9844 C353.5156,118.6875 354.8125,119.7813 356.8594,119.7813 C357.625,119.7813 358.3125,119.6563 358.7344,119.3906 C358.9219,119.2969 358.9219,119.2969 359.375,118.8125 C359.5625,118.625 359.7656,118.5469 359.9844,118.5469 C360.4531,118.5469 360.8438,118.9375 360.8438,119.3906 C360.8438,119.7813 360.5156,120.2344 359.9375,120.6406 C359.1875,121.1875 358.0313,121.4844 356.8125,121.4844 C353.9219,121.4844 351.8125,119.5938 351.8125,117.0156 L351.8125,115.8906 C351.8125,113.1719 353.8125,111.0938 356.4375,111.0938 C357.3125,111.0938 357.9063,111.2344 358.8438,111.6719 Z "/><text fill="#000000" font-family="sans-serif" font-size="12" lengthAdjust="spacingAndGlyphs" textLength="55" x="370.5" y="120.1543">Attribute</text><!--class behavior8--><rect fill="#FEFECE" filter="url(#f1aharsgaae10k)" height="32" id="behavior8" style="stroke: #A80036; stroke-width: 1.5;" width="126" x="464" y="100"/><ellipse cx="479" cy="116" fill="#ADD1B2" rx="11" ry="11" style="stroke: #A80036; stroke-width: 1.0;"/><path d="M481.3438,111.6719 L481.5156,111.75 C481.7344,111.4375 481.9375,111.3438 482.2344,111.3438 C482.5313,111.3438 482.8125,111.4844 482.9688,111.75 C483.0625,111.9063 483.0781,112.0313 483.0781,112.4688 L483.0781,113.8906 C483.0781,114.3125 483.0469,114.5 482.9375,114.6563 C482.7656,114.875 482.5,115.0156 482.2344,115.0156 C482.0156,115.0156 481.7813,114.9063 481.6406,114.7656 C481.5,114.6406 481.4688,114.5156 481.4063,114.1094 C481.3125,113.7031 481.1406,113.4844 480.6563,113.2031 C480.1875,112.9531 479.5781,112.7969 479,112.7969 C477.2656,112.7969 476.0156,114.1094 476.0156,115.8906 L476.0156,116.9844 C476.0156,118.6875 477.3125,119.7813 479.3594,119.7813 C480.125,119.7813 480.8125,119.6563 481.2344,119.3906 C481.4219,119.2969 481.4219,119.2969 481.875,118.8125 C482.0625,118.625 482.2656,118.5469 482.4844,118.5469 C482.9531,118.5469 483.3438,118.9375 483.3438,119.3906 C483.3438,119.7813 483.0156,120.2344 482.4375,120.6406 C481.6875,121.1875 480.5313,121.4844 479.3125,121.4844 C476.4219,121.4844 474.3125,119.5938 474.3125,117.0156 L474.3125,115.8906 C474.3125,113.1719 476.3125,111.0938 478.9375,111.0938 C479.8125,111.0938 480.4063,111.2344 481.3438,111.6719 Z "/><text fill="#000000" font-family="sans-serif" font-size="12" lengthAdjust="spacingAndGlyphs" textLength="94" x="493" y="120.1543">ImplicitVariable</text><!--class behavior9--><rect fill="#FEFECE" filter="url(#f1aharsgaae10k)" height="32" id="behavior9" style="stroke: #A80036; stroke-width: 1.5;" width="122" x="625" y="100"/><ellipse cx="640" cy="116" fill="#ADD1B2" rx="11" ry="11" style="stroke: #A80036; stroke-width: 1.0;"/><path d="M642.3438,111.6719 L642.5156,111.75 C642.7344,111.4375 642.9375,111.3438 643.2344,111.3438 C643.5313,111.3438 643.8125,111.4844 643.9688,111.75 C644.0625,111.9063 644.0781,112.0313 644.0781,112.4688 L644.0781,113.8906 C644.0781,114.3125 644.0469,114.5 643.9375,114.6563 C643.7656,114.875 643.5,115.0156 643.2344,115.0156 C643.0156,115.0156 642.7813,114.9063 642.6406,114.7656 C642.5,114.6406 642.4688,114.5156 642.4063,114.1094 C642.3125,113.7031 642.1406,113.4844 641.6563,113.2031 C641.1875,112.9531 640.5781,112.7969 640,112.7969 C638.2656,112.7969 637.0156,114.1094 637.0156,115.8906 L637.0156,116.9844 C637.0156,118.6875 638.3125,119.7813 640.3594,119.7813 C641.125,119.7813 641.8125,119.6563 642.2344,119.3906 C642.4219,119.2969 642.4219,119.2969 642.875,118.8125 C643.0625,118.625 643.2656,118.5469 643.4844,118.5469 C643.9531,118.5469 644.3438,118.9375 644.3438,119.3906 C644.3438,119.7813 644.0156,120.2344 643.4375,120.6406 C642.6875,121.1875 641.5313,121.4844 640.3125,121.4844 C637.4219,121.4844 635.3125,119.5938 635.3125,117.0156 L635.3125,115.8906 C635.3125,113.1719 637.3125,111.0938 639.9375,111.0938 C640.8125,111.0938 641.4063,111.2344 642.3438,111.6719 Z "/><text fill="#000000" font-family="sans-serif" font-size="12" lengthAdjust="spacingAndGlyphs" textLength="90" x="654" y="120.1543">GlobalVariable</text><!--class behavior10--><rect fill="#FEFECE" filter="url(#f1aharsgaae10k)" height="32" id="behavior10" style="stroke: #A80036; stroke-width: 1.5;" width="115" x="782.5" y="100"/><ellipse cx="797.5" cy="116" fill="#ADD1B2" rx="11" ry="11" style="stroke: #A80036; stroke-width: 1.0;"/><path d="M799.8438,111.6719 L800.0156,111.75 C800.2344,111.4375 800.4375,111.3438 800.7344,111.3438 C801.0313,111.3438 801.3125,111.4844 801.4688,111.75 C801.5625,111.9063 801.5781,112.0313 801.5781,112.4688 L801.5781,113.8906 C801.5781,114.3125 801.5469,114.5 801.4375,114.6563 C801.2656,114.875 801,115.0156 800.7344,115.0156 C800.5156,115.0156 800.2813,114.9063 800.1406,114.7656 C800,114.6406 799.9688,114.5156 799.9063,114.1094 C799.8125,113.7031 799.6406,113.4844 799.1563,113.2031 C798.6875,112.9531 798.0781,112.7969 797.5,112.7969 C795.7656,112.7969 794.5156,114.1094 794.5156,115.8906 L794.5156,116.9844 C794.5156,118.6875 795.8125,119.7813 797.8594,119.7813 C798.625,119.7813 799.3125,119.6563 799.7344,119.3906 C799.9219,119.2969 799.9219,119.2969 800.375,118.8125 C800.5625,118.625 800.7656,118.5469 800.9844,118.5469 C801.4531,118.5469 801.8438,118.9375 801.8438,119.3906 C801.8438,119.7813 801.5156,120.2344 800.9375,120.6406 C800.1875,121.1875 799.0313,121.4844 797.8125,121.4844 C794.9219,121.4844 792.8125,119.5938 792.8125,117.0156 L792.8125,115.8906 C792.8125,113.1719 794.8125,111.0938 797.4375,111.0938 C798.3125,111.0938 798.9063,111.2344 799.8438,111.6719 Z "/><text fill="#000000" font-family="sans-serif" font-size="12" lengthAdjust="spacingAndGlyphs" textLength="83" x="811.5" y="120.1543">LocalVariable</text><!--class behavior11--><rect fill="#FEFECE" filter="url(#f1aharsgaae10k)" height="32" id="behavior11" style="stroke: #A80036; stroke-width: 1.5;" width="98" x="933" y="100"/><ellipse cx="948" cy="116" fill="#ADD1B2" rx="11" ry="11" style="stroke: #A80036; stroke-width: 1.0;"/><path d="M950.3438,111.6719 L950.5156,111.75 C950.7344,111.4375 950.9375,111.3438 951.2344,111.3438 C951.5313,111.3438 951.8125,111.4844 951.9688,111.75 C952.0625,111.9063 952.0781,112.0313 952.0781,112.4688 L952.0781,113.8906 C952.0781,114.3125 952.0469,114.5 951.9375,114.6563 C951.7656,114.875 951.5,115.0156 951.2344,115.0156 C951.0156,115.0156 950.7813,114.9063 950.6406,114.7656 C950.5,114.6406 950.4688,114.5156 950.4063,114.1094 C950.3125,113.7031 950.1406,113.4844 949.6563,113.2031 C949.1875,112.9531 948.5781,112.7969 948,112.7969 C946.2656,112.7969 945.0156,114.1094 945.0156,115.8906 L945.0156,116.9844 C945.0156,118.6875 946.3125,119.7813 948.3594,119.7813 C949.125,119.7813 949.8125,119.6563 950.2344,119.3906 C950.4219,119.2969 950.4219,119.2969 950.875,118.8125 C951.0625,118.625 951.2656,118.5469 951.4844,118.5469 C951.9531,118.5469 952.3438,118.9375 952.3438,119.3906 C952.3438,119.7813 952.0156,120.2344 951.4375,120.6406 C950.6875,121.1875 949.5313,121.4844 948.3125,121.4844 C945.4219,121.4844 943.3125,119.5938 943.3125,117.0156 L943.3125,115.8906 C943.3125,113.1719 945.3125,111.0938 947.9375,111.0938 C948.8125,111.0938 949.4063,111.2344 950.3438,111.6719 Z "/><text fill="#000000" font-family="sans-serif" font-size="12" lengthAdjust="spacingAndGlyphs" textLength="66" x="962" y="120.1543">Parameter</text><!--link behavior1 to behavior4--><path d="M125.597,52.8945 C106.474,68.3993 83.4258,87.0872 67.6395,99.8869 " fill="none" id="behavior1-behavior4" style="stroke: #A80036; stroke-width: 1.0;"/><polygon fill="none" points="121.477,47.2228,141.421,40.064,130.295,58.0973,121.477,47.2228" style="stroke: #A80036; stroke-width: 1.0;"/><!--link behavior1 to behavior5--><path d="M160,60.6147 C160,74.3102 160,89.2196 160,99.9582 " fill="none" id="behavior1-behavior5" style="stroke: #A80036; stroke-width: 1.0;"/><polygon fill="none" points="153,60.2673,160,40.2673,167,60.2672,153,60.2673" style="stroke: #A80036; stroke-width: 1.0;"/><!--link behavior1 to behavior6--><path d="M193.693,53.3401 C212.056,68.7851 234.043,87.2788 249.117,99.9582 " fill="none" id="behavior1-behavior6" style="stroke: #A80036; stroke-width: 1.0;"/><polygon fill="none" points="188.951,58.4982,178.151,40.2673,197.963,47.7842,188.951,58.4982" style="stroke: #A80036; stroke-width: 1.0;"/><!--link behavior3 to behavior7--><path d="M625.117,43.2042 C566.801,60.6409 480.25,86.5199 428.547,101.9793 " fill="none" id="behavior3-behavior7" style="stroke: #A80036; stroke-width: 1.0;"/><polygon fill="none" points="623.296,36.4425,644.463,37.4196,627.307,49.8558,623.296,36.4425" style="stroke: #A80036; stroke-width: 1.0;"/><!--link behavior3 to behavior8--><path d="M641.659,50.0986 C613.389,66.1008 577.69,86.3075 553.7,99.8869 " fill="none" id="behavior3-behavior8" style="stroke: #A80036; stroke-width: 1.0;"/><polygon fill="none" points="638.534,43.8242,659.387,40.064,645.43,56.0078,638.534,43.8242" style="stroke: #A80036; stroke-width: 1.0;"/><!--link behavior3 to behavior9--><path d="M686,60.6147 C686,74.3102 686,89.2196 686,99.9582 " fill="none" id="behavior3-behavior9" style="stroke: #A80036; stroke-width: 1.0;"/><polygon fill="none" points="679,60.2673,686,40.2673,693,60.2672,679,60.2673" style="stroke: #A80036; stroke-width: 1.0;"/><!--link behavior3 to behavior10--><path d="M729.34,50.3286 C756.659,66.294 791.015,86.3725 814.14,99.8869 " fill="none" id="behavior3-behavior10" style="stroke: #A80036; stroke-width: 1.0;"/><polygon fill="none" points="725.512,56.199,711.776,40.064,732.576,44.1118,725.512,56.199" style="stroke: #A80036; stroke-width: 1.0;"/><!--link behavior3 to behavior11--><path d="M747.172,43.5997 C802.145,60.3142 881.842,84.5465 932.791,100.0379 " fill="none" id="behavior3-behavior11" style="stroke: #A80036; stroke-width: 1.0;"/><polygon fill="none" points="744.88,50.2193,727.782,37.7039,748.953,36.8248,744.88,50.2193" style="stroke: #A80036; stroke-width: 1.0;"/><!--
@startuml
hide empty members

class behavior1 as "Entity" {
}

class behavior2 as "Comment" {
}

class behavior3 as "Variable" {
}

class behavior4 as "Package" {
}

class behavior5 as "Class" {
}

class behavior6 as "Method" {
}

class behavior7 as "Attribute" {
}

class behavior8 as "ImplicitVariable" {
}

class behavior9 as "GlobalVariable" {
}

class behavior10 as "LocalVariable" {
}

class behavior11 as "Parameter" {
}

behavior1 <|- - behavior4
behavior1 <|- - behavior5
behavior1 <|- - behavior6
behavior3 <|- - behavior7
behavior3 <|- - behavior8
behavior3 <|- - behavior9
behavior3 <|- - behavior10
behavior3 <|- - behavior11
@enduml

PlantUML version 1.2018.01(Sun Jan 28 18:08:22 UTC 2018)
(GPL source distribution)
Java Runtime: Java(TM) SE Runtime Environment
JVM: Java HotSpot(TM) 64-Bit Server VM
Java Version: 1.7.0_25-b15
Operating System: Linux
Default Encoding: UTF-8
Language: en
Country: US
--></g></svg>